<?xml version="1.0" encoding="UTF-8"?><svg id="Layer_2" xmlns="http://www.w3.org/2000/svg" viewBox="0 0 307.61 131.3"><defs><style>.cls-1{fill:#656665;}.cls-2{fill:#cdcecd;}.cls-3{opacity:.17;}.cls-3,.cls-4{font-family:CaveStoneRegular, Cave-Stone;font-size:60px;}.cls-4{fill:#fff;}.cls-5{letter-spacing:-.04em;}.cls-6{fill:#a4a2a2;opacity:.2;}.cls-7{fill:none;stroke:#8b8b8c;stroke-miterlimit:10;stroke-width:8px;}</style></defs><g id="Layer_30"><rect class="cls-1" x="47.58" y="19.03" width="209.75" height="112.27" rx="36.34" ry="36.34"/><rect class="cls-2" x="51.35" y="4.06" width="202.17" height="112.27" rx="36.34" ry="36.34"/><path class="cls-6" d="m232.01,8.33L98,114.04c8.43,1.93,17.55,2.97,27.08,2.92l50.54-.27c41.87-.22,79.3-3.97,78.94-29.78l-4.21-48.51c-.16-11.5-7.05-22-18.34-30.08Z"/><rect class="cls-7" x="51.37" y="4" width="202.17" height="112.27" rx="36.34" ry="36.34"/><text class="cls-3" transform="translate(74.5 86.26)"><tspan x="0" y="0">B</tspan><tspan class="cls-5" x="41.22" y="0">A</tspan><tspan x="76.68" y="0">CK</tspan></text><text class="cls-4" transform="translate(81.8 81.17)"><tspan x="0" y="0">B</tspan><tspan class="cls-5" x="41.22" y="0">A</tspan><tspan x="76.68" y="0">CK</tspan></text></g></svg>