<?xml version="1.0" encoding="UTF-8"?><svg id="Layer_2" xmlns="http://www.w3.org/2000/svg" xmlns:xlink="http://www.w3.org/1999/xlink" viewBox="0 0 461.35 192.16"><defs><style>.cls-1{fill:url(#linear-gradient);opacity:.42;}.cls-2{fill:#656665;}.cls-3{fill:#cccccb;}.cls-4{fill:#a4a2a2;opacity:.2;}.cls-5{fill:none;stroke:#8b8b8c;stroke-miterlimit:10;stroke-width:8px;}</style><linearGradient id="linear-gradient" x1="195.96" y1="156.74" x2="452.85" y2="156.74" gradientUnits="userSpaceOnUse"><stop offset="0" stop-color="#fff" stop-opacity="0"/><stop offset=".02" stop-color="#d3d3d3" stop-opacity=".3"/><stop offset=".04" stop-color="#afaeae" stop-opacity=".56"/><stop offset=".06" stop-color="#939292" stop-opacity=".75"/><stop offset=".08" stop-color="#7f7e7e" stop-opacity=".89"/><stop offset=".11" stop-color="#737272" stop-opacity=".97"/><stop offset=".15" stop-color="#706f6f"/></linearGradient></defs><g id="Layer_30"><path class="cls-2" d="m459.36,181.46l-24.09-26.66c-1.9-2.1-4.31-3.46-6.92-3.83-2.29-.33-5.39-.5-9.48-.36h-216.61l-28.75-121.3c0-6.3-4.45-11.41-9.94-11.41H15.25c-5.49,0-9.94,5.11-9.94,11.41l35.9,151.45c0,6.3,4.45,11.41,9.94,11.41h148.34c.53,0,1.04-.06,1.55-.15,1.3.06,2.67.09,4.08.09,0,0,186.52-.19,248.7-.26,1.03,0,2-.04,2.93-.1,4.58-.32,6.3-7.1,2.63-10.28Z"/><path class="cls-3" d="m454.01,167.57l-23.87-26.66c-1.88-2.1-4.28-3.46-6.86-3.83-2.27-.33-5.34-.5-9.39-.36h-214.68l-28.5-121.3c0-6.3-4.41-11.41-9.85-11.41H13.85c-5.44,0-9.85,5.11-9.85,11.41l35.58,151.45c0,6.3,4.41,11.41,9.85,11.41h147.01c.52,0,1.03-.06,1.54-.15,1.29.06,2.65.09,4.04.09,0,0,184.86-.19,246.48-.26,1.02,0,1.98-.04,2.9-.1,4.54-.32,6.25-7.1,2.61-10.28Z"/><path class="cls-4" d="m454.39,168.29l-23.87-26.66c-1.88-2.1-4.28-3.46-6.86-3.83-2.26-.33-5.34-.5-9.39-.36h-214.68l-18.99-80.83L48.89,178.94c.3.03.61.05.92.05h147.01c.52,0,1.03-.06,1.54-.15,1.29.06,2.65.09,4.04.09,0,0,184.86-.19,246.48-.26,1.02,0,1.98-.04,2.9-.1,4.54-.32,6.25-7.1,2.61-10.28Z"/><path class="cls-1" d="m450.98,165.5l-17.01-24.82c-1.59-1.81-4.55-1.69-7.5-1.81-1.93-.08-6.02-.08-9.44.04h-35.83v-.04h-185.24v35.79h185.24v-.15c26.22-.03,50.03-.05,65.11-.07.86,0,1.68-.13,2.45-.09,5.47.31,4.62-4.88,2.21-8.86Z"/><path class="cls-5" d="m454.01,167.57l-23.87-26.66c-1.88-2.1-4.28-3.46-6.86-3.83-2.27-.33-5.34-.5-9.39-.36h-214.68l-28.5-121.3c0-6.3-4.41-11.41-9.85-11.41H13.85c-5.44,0-9.85,5.11-9.85,11.41l35.58,151.45c0,6.3,4.41,11.41,9.85,11.41h147.01c.52,0,1.03-.06,1.54-.15,1.29.06,2.65.09,4.04.09,0,0,184.86-.19,246.48-.26,1.02,0,1.98-.04,2.9-.1,4.54-.32,6.25-7.1,2.61-10.28Z"/></g></svg>