<?xml version="1.0" encoding="UTF-8"?><svg id="Layer_2" xmlns="http://www.w3.org/2000/svg" viewBox="0 0 569.95 245.41"><defs><style>.cls-1{fill:#fff;}.cls-2{fill:#656665;}.cls-3{fill:#cdcecd;}.cls-4{fill:none;stroke:#88898a;stroke-miterlimit:10;stroke-width:10px;}.cls-5{fill:#a1a09f;opacity:.2;}.cls-6{opacity:.17;}</style></defs><g id="Layer_30"><path class="cls-2" d="m22.58,209.41l525.69,36c9.2,0,16.66-8.1,16.66-18.09V90.78c0-9.99-7.46-18.09-16.66-18.09L21.66,31.69c-9.2,0-16.66,8.1-16.66,18.09l.92,141.54c0,9.99,7.46,18.09,16.66,18.09Z"/><path class="cls-3" d="m22.23,182.72l525.69,36c9.2,0,16.66-8.1,16.66-18.09V64.09c0-9.99-7.46-18.09-16.66-18.09L21.31,5C12.11,5,4.65,13.1,4.65,23.09l.92,141.54c0,9.99,7.46,18.09,16.66,18.09Z"/><path class="cls-5" d="m555.74,45.37l-175.34-13.68L107.88,188.36l434.47,30.17c9.1,1.44,17.59-5.6,18.95-15.73l8.46-136.48c1.36-10.13-4.91-19.51-14.02-20.95Z"/><path class="cls-4" d="m22.58,182.72l525.69,36c9.2,0,16.66-8.1,16.66-18.09V64.09c0-9.99-7.46-18.09-16.66-18.09L21.66,5C12.46,5,5,13.1,5,23.09l.92,141.54c0,9.99,7.46,18.09,16.66,18.09Z"/><g class="cls-6"><path d="m117.3,116.31l13.05-2.82,20.65,11.41-9.72,7.15-2.2,1.56-7.02,5.14-5-.72-1.6-3.06-.38,2.73-4.06-.56.45-6.54-3.09,6.17-7.92-1.21-13.24-9.66-3.55-26.14c.94-.76,1.43-1.36,1.46-1.81.01-.19-.08-.67-.28-1.45-.2-.78-.32-1.42-.35-1.93.04-.63-.54-1.34-1.76-2.12l-.76-5.57,15.5-13.7,13.73-.3c.66.62,1.52.96,2.6,1.03.51.03,1.09.01,1.77-.07.67-.08,1.23-.17,1.68-.27.45-.09.9-.16,1.35-.19.45-.03.7.02.75.15.06.07.12.1.18.11s.15-.04.25-.13c.1-.09.21-.21.31-.36.11-.15.23-.32.37-.5l8.58-.18,17.37,20.32-19.9,8.36-4.42-9.16-12.19,1.36-7.85,6.13,2.89,9.34-5.25,1.55,6.18,1.47,1.41,4.48Z"/><path d="m201.78,107.7l-.77,4.23-.78.33v1.24s-.98.6-.98.6l-.06.85c.1.32.15.64.12.96s-.07.57-.15.75l-.11.18-.16,2.28-1.23,1.25-.07,1.04.81.72c-.03.51.15,1.03.56,1.56l-1.23,6.87-7.19,4.84-5.74-5.15c1.35,2.57,2.5,4.8,3.45,6.71l-2,1.39-3.09,2.07-16.69-2.38-7.64-5.19-2.64-1.8-.86-5.58-.33-2.12,1.12-2.4-.59-1.18.17-2.56-.76-1.39.15-2.18-.16-.49c-.47-.54-.73-.94-.77-1.2l.08-1.14-1.28-.85-.26-1.83-.71-4.9,11.9-9.66,8.49-.18,6.57,4.26-2.66-4.28,12.01-.23,4.79,5.18,4.35,4.68,4.35,4.68Zm-20.1,12.63l3.38-6.34-2.77-5.52-7.18.56-4.3,3.04,2.34,8.92,8.52-.66Z"/><path d="m252.39,120.87v6.86s-5.24,16.88-5.24,16.88l-18.03-2.37,2.41-11.55c.01-.19.15-.35.41-.49.26-.14.43-.27.5-.39.07-.12.11-.28.13-.47s0-.35-.06-.48l-.08-.2.9-.6.82-.9-1.62-1.35,1.2-.87-.04-.86-.53-.61c-.05-.26.24-1.16.85-2.7.38-.99.32-1.44-.19-1.35l.39-1.5-2.39-5.49-6.81.77-.93,14.98-4.36-1.73,4.13,5.04-.74,10.9-15.33,1.43-1.28-3.61-.24-.68.27-1.12.08-1.23-.04-.86-.52-.8-.54-.42-1.16-1.13-.23-.78-1.82-5.36,1.33-9.72.72-.81c.07-.06.14-.15.21-.27.07-.12.18-.35.33-.69.15-.34.2-.64.16-.89l.02-1.71.03-.48c.07-.12.33-.64.77-1.56.07-.12.05-.24-.07-.34-.12-.1-.27-.19-.46-.27h-.19s.03-1.82.03-1.82l.72-.81.08-1.14.05-2.09-.54-.51.61-4.72,6.93-5.24,10.82,4.64v.19s5.96-1.02,5.96-1.02l5.57,3.52-2.48-4.07,9.34-1.55,9.9,8.48.15,13.15-4.16-1.9,4.25,4.67Z"/><path d="m285.48,125.8l12.27,5.79-4.91,13.28-3.66,4.8-6.87-1.14c0-.13-.05-.22-.17-.3-.12-.07-.21-.14-.27-.21-.05-.19-.23-.36-.54-.51-.12-.07-.2-.13-.23-.16-.03-.03-.09-.09-.18-.16s-.17-.14-.22-.21l-.57-.04-3.98-.27-1.46-.96-.91.79-.57-.04-2.24-.72c-.37-.22-.68-.33-.93-.35-.19-.01-.49.25-.91.79l-5.83-1.06-2.06-6.05,6.11-5.77-7.06,2.95-2.13-6.43,2.82-17.52-3.86-.64-1.31-11.52,5.69.39.05-10.47,8.37-8.19,11.26,6.58-.34,5.02-4.99,4.8,4.84-2.53-.43,6.35,9.5.27,4.73,6.04-10.9,7.63-4.44-.49-.51,3.3c-.25-.02-.45.07-.59.25-.2.12-.34.28-.41.5-.08.22-.14.43-.19.65-.05.22-.12.37-.22.46-.1.09-.16.27-.18.56s0,.52.05.72l.07.39-.17,2.56c.13-.05.24-.08.34-.07s.2.05.32.12l-.34,2.26,3.52,5.67,4.68-7.11Z"/><path d="m324.36,116.93l-2.06,13.48-4.93-1.77,4.54,4.69-2.01,12.72-7.22,5.32-8.95-1.37-6.38-4.24,1.08-4.59,5.45-1.72-4.9-.81,2.73-12.1c.41-.48.83-1.02,1.25-1.63l.43-.73c-.27.17-.39.1-.37-.22l.99-1.93c-.16-.46-.28-.97-.37-1.55l1.2-.87-.56-.13c-.31-.08-.22-.52.28-1.31l.05-.76-.72-.62,1.91-8.44,11.8-4.05,1.52,2.87-.75,1.19.53.61c.21-.37.4-.32.56.13l.68,1.19-.19,1.42c1.35.6,2.09.97,2.21,1.1,0,.06-.06.13-.16.18s-.2.11-.3.17c-.1.06-.15.15-.16.27l.28,1.45.75.15.42-.54,1.35,2.47Zm-16.64-25.42c-.12-.07-.24-.14-.37-.21l-.71-2.14,7.87-3.65,7.6.23,1.52,2.86-5.07,3.18,6.16-1.01,1.27,2.37-2.82,7.9-12.24.69-1.18-3.6-.08-.2c.22-.43.37-.7.44-.83.22-.43.07-.98-.46-1.65-.3-.21-.36-.37-.16-.49.2-.11.3-.27.32-.46l.17-1.13-.57-.04-.89-.92c-.11-.2-.25-.38-.39-.55-.15-.17-.28-.29-.4-.36Z"/><path d="m375.6,129.28v6.86s-5.24,16.88-5.24,16.88l-18.03-2.37,2.41-11.55c.01-.19.15-.35.41-.49.26-.14.43-.27.5-.39.07-.12.11-.28.13-.47s0-.35-.06-.48l-.08-.2.9-.6.82-.9-1.62-1.35,1.2-.87-.04-.86-.53-.61c-.05-.26.24-1.16.85-2.7.38-.99.32-1.44-.19-1.35l.39-1.5-2.39-5.49-6.81.77-.93,14.98-4.36-1.73,4.13,5.04-.74,10.9-15.33,1.43-1.28-3.61-.24-.68.27-1.12.08-1.23-.04-.86-.52-.8-.54-.42-1.16-1.13-.23-.78-1.82-5.36,1.33-9.72.72-.81c.07-.06.14-.15.21-.27.07-.12.18-.35.33-.69.15-.34.2-.64.16-.89l.02-1.71.03-.48c.07-.12.33-.64.77-1.56.07-.12.05-.24-.07-.34-.12-.1-.27-.19-.46-.27h-.19s.03-1.82.03-1.82l.72-.81.08-1.14.05-2.09-.54-.51.61-4.72,6.93-5.24,10.82,4.64v.19s5.96-1.02,5.96-1.02l5.57,3.52-2.48-4.07,9.34-1.55,9.9,8.48.15,13.15-4.16-1.9,4.25,4.67Z"/><path d="m429.47,126.87l-1.62,8.46-.76,1.38c.12.14.2.3.25.49.05.2.07.39.06.58l-.45,1.02c.1.39-.15.85-.76,1.38-.41.48-.43.73-.05.76.36.28.34.53-.05.76-.2.11-.32.23-.36.36-.04.12-.05.23-.02.33.02.1.06.26.11.48.05.23.09.47.14.72-.34.36-.67.56-.99.6-.13.06-.2.15-.21.27s.01.26.07.39l.08.2-.73.9c.39.73.58,1.31.55,1.75l-.1,1.52c.12.14.3.31.54.51l-.9,4.8-7.1,3.61-10.58-3.96v-.19s-18.61,2.25-18.61,2.25l-9.48-9.03.32-7.5,8.84-1.11-8.76-1.46.49-12.73,6.18-16.53,17.87,3.31-1.14,4.21v.1s-.28,1.22-.28,1.22l-.11.18v.09s-.02.19-.02.19c-.91.32-1.47.66-1.69,1.03,0,.06-.03.16-.07.28-.04.12-.07.25-.07.38l-.03.42c-.01.16,0,.32.02.48.02.16.03.29.02.38l-.02.24v.09c-.29.36-.53.7-.74,1,0,.06-.03.2-.08.42-.05.22-.08.47-.1.76s-.02.54,0,.76c.02.22.02.43,0,.62l-.02.28-.15.85-.12,1.71c-.11.63-.14,1.1-.1,1.42.05.19.03.48-.06.85l-1.55,5.99,2.09,5.67,6.79-.49,3.41-29,15.38-.76,1.54,5.34c-.65,1.1-1.45,2.34-2.4,3.74-.95,1.4-1.74,2.48-2.37,3.27l-.94,1.17,6.46-5.37,2.39,8.16Z"/><path d="m467.43,141.26l11.02,3.23-1,11.83-7.33,1.4c-.19.05-.5-.19-.9-.73l-.94-.25-.8.61c-.52.16-.94.32-1.27.48l-1.71-.12c-.42-.35-.73-.53-.92-.54-.06,0-.27.27-.63.81l-.58.05-1.35.19-.38-.03c-.12-.07-.26.02-.4.26-.14.24-.29.46-.42.64l-.12.37c-.07.12-.14.24-.21.37l-6.95,1.33-14.74-8.72-1.94-6.51,3.13-6.74-4.06,3.72-4.49-15.16,9.45-11.45,6.94-1.24h.09s.58-.05.58-.05l1.1.55c.37.15.59.14.67-.05l.4-.35.98-.41.64.33.79-.42.76-.04c.45-.16.71-.17.77-.04.18.14.37.12.57-.05,0-.06.06-.14.16-.23.1-.09.22-.19.35-.31.13-.12.27-.23.4-.35l7.14-1.32,13.06,8.13-1.35,16.95-21.32-.22,1.15,2.74-4.22.47,5.03,1.58.99,2.26,11.82-3Zm-15.35-16.47l-.96,4.31,14.74.24-1.83-3.93-5.33-2.84-6.63,2.21Z"/></g><path class="cls-1" d="m125.07,111.11l13.05-2.82,20.65,11.41-9.72,7.14-2.2,1.56-7.02,5.14-5-.72-1.6-3.06-.38,2.74-4.06-.56.45-6.54-3.09,6.17-7.92-1.21-13.24-9.66-3.55-26.14c.94-.76,1.43-1.36,1.46-1.81.01-.19-.08-.67-.28-1.45-.2-.78-.32-1.42-.35-1.93.04-.63-.54-1.34-1.76-2.12l-.76-5.57,15.5-13.7,13.73-.3c.66.62,1.52.96,2.6,1.03.51.03,1.09.01,1.77-.07.67-.08,1.23-.17,1.68-.26.45-.1.9-.16,1.35-.19.45-.03.7.02.75.15.06.07.12.1.18.11s.15-.04.25-.13c.1-.09.21-.21.31-.36s.23-.32.37-.5l8.58-.18,17.37,20.33-19.9,8.35-4.42-9.16-12.19,1.36-7.85,6.13,2.89,9.34-5.25,1.55,6.18,1.47,1.41,4.48Z"/><path class="cls-1" d="m209.54,102.5l-.77,4.23-.78.33v1.24s-.98.6-.98.6l-.06.85c.1.33.15.65.12.96s-.07.57-.15.75l-.11.18-.16,2.27-1.23,1.25-.07,1.04.81.72c-.03.51.15,1.03.56,1.56l-1.23,6.87-7.19,4.84-5.74-5.15c1.35,2.57,2.5,4.81,3.45,6.71l-2,1.39-3.09,2.08-16.69-2.38-7.64-5.19-2.64-1.8-.86-5.58-.33-2.12,1.12-2.4-.59-1.18.17-2.56-.76-1.39.15-2.18-.16-.49c-.47-.54-.73-.94-.77-1.19l.08-1.14-1.28-.85-.26-1.83-.71-4.91,11.9-9.66,8.49-.18,6.57,4.26-2.66-4.28,12.01-.23,4.79,5.18,4.35,4.68,4.35,4.68Zm-20.1,12.63l3.38-6.34-2.77-5.52-7.18.56-4.3,3.04,2.34,8.92,8.52-.66Z"/><path class="cls-1" d="m260.16,115.66v6.86s-5.24,16.88-5.24,16.88l-18.03-2.37,2.41-11.55c.01-.19.15-.35.41-.5.26-.14.43-.27.5-.39.07-.12.11-.28.13-.47s0-.35-.06-.48l-.08-.2.9-.61.82-.9-1.62-1.35,1.2-.87-.04-.86-.53-.61c-.05-.26.24-1.16.85-2.7.38-.99.32-1.44-.19-1.35l.39-1.5-2.39-5.5-6.81.77-.93,14.98-4.36-1.72,4.13,5.04-.74,10.9-15.33,1.43-1.28-3.61-.24-.68.27-1.13.08-1.23-.04-.86-.52-.8-.54-.42-1.16-1.13-.23-.78-1.82-5.36,1.33-9.72.72-.81c.07-.06.14-.15.21-.27.07-.12.18-.35.33-.69.15-.34.2-.64.16-.89l.02-1.71.03-.47c.07-.12.33-.65.77-1.57.07-.12.05-.24-.07-.34-.12-.1-.27-.19-.46-.27h-.19s.03-1.82.03-1.82l.72-.81.08-1.14.05-2.09-.54-.51.61-4.72,6.93-5.24,10.82,4.64v.19s5.96-1.02,5.96-1.02l5.57,3.52-2.48-4.07,9.34-1.55,9.9,8.48.15,13.15-4.16-1.9,4.25,4.67Z"/><path class="cls-1" d="m293.24,120.59l12.27,5.79-4.91,13.28-3.66,4.8-6.87-1.13c0-.13-.05-.23-.17-.3s-.21-.14-.27-.21c-.05-.19-.23-.36-.54-.51-.12-.07-.2-.12-.23-.16-.03-.03-.09-.08-.18-.16-.09-.07-.17-.14-.22-.21l-.57-.04-3.98-.27-1.46-.96-.91.8-.57-.04-2.24-.72c-.37-.21-.68-.33-.93-.35-.19-.01-.49.25-.91.8l-5.83-1.07-2.06-6.04,6.11-5.77-7.06,2.95-2.13-6.43,2.82-17.52-3.86-.65-1.31-11.51,5.69.39.05-10.47,8.37-8.19,11.26,6.58-.34,5.02-4.99,4.8,4.84-2.53-.43,6.35,9.5.27,4.73,6.04-10.9,7.64-4.44-.5-.51,3.3c-.25-.02-.45.06-.59.25-.2.11-.34.28-.41.49-.08.22-.14.43-.19.65-.05.22-.12.37-.22.46s-.16.27-.18.56,0,.52.05.72l.07.38-.17,2.56c.13-.05.24-.08.34-.07s.2.05.32.12l-.34,2.26,3.52,5.67,4.68-7.11Z"/><path class="cls-1" d="m332.13,111.72l-2.06,13.47-4.93-1.76,4.54,4.69-2.01,12.72-7.22,5.32-8.95-1.37-6.38-4.24,1.08-4.59,5.45-1.72-4.9-.81,2.73-12.1c.41-.48.83-1.02,1.25-1.63l.43-.73c-.27.17-.39.1-.37-.21l.99-1.93c-.16-.45-.28-.97-.37-1.55l1.2-.87-.56-.13c-.31-.08-.22-.52.28-1.31l.05-.76-.72-.62,1.91-8.44,11.8-4.05,1.52,2.87-.75,1.19.53.61c.21-.37.4-.32.56.13l.68,1.19-.19,1.42c1.35.6,2.09.97,2.21,1.1,0,.06-.06.12-.16.18-.1.06-.2.12-.3.17-.1.06-.15.15-.16.27l.28,1.45.75.15.42-.54,1.35,2.47Zm-16.64-25.42c-.12-.07-.24-.14-.37-.22l-.71-2.14,7.87-3.65,7.6.23,1.52,2.87-5.07,3.18,6.16-1.01,1.27,2.37-2.82,7.9-12.24.69-1.18-3.6-.08-.2c.22-.43.37-.7.44-.83.22-.43.07-.98-.46-1.65-.3-.21-.36-.37-.16-.49.2-.11.3-.27.32-.45l.17-1.13-.57-.04-.89-.92c-.11-.2-.25-.38-.39-.55-.15-.17-.28-.29-.4-.36Z"/><path class="cls-1" d="m383.37,124.08v6.86s-5.24,16.88-5.24,16.88l-18.03-2.37,2.41-11.55c.01-.19.15-.35.41-.5.26-.14.43-.27.5-.39.07-.12.11-.28.13-.47s0-.35-.06-.48l-.08-.2.9-.61.82-.9-1.62-1.35,1.2-.87-.04-.86-.53-.61c-.05-.26.24-1.16.85-2.7.38-.99.32-1.44-.19-1.35l.39-1.5-2.39-5.5-6.81.77-.93,14.98-4.36-1.72,4.13,5.04-.74,10.9-15.33,1.43-1.28-3.61-.24-.68.27-1.13.08-1.23-.04-.86-.52-.8-.54-.42-1.16-1.13-.23-.78-1.82-5.36,1.33-9.72.72-.81c.07-.06.14-.15.21-.27.07-.12.18-.35.33-.69.15-.34.2-.64.16-.89l.02-1.71.03-.47c.07-.12.33-.65.77-1.57.07-.12.05-.24-.07-.34-.12-.1-.27-.19-.46-.27h-.19s.03-1.82.03-1.82l.72-.81.08-1.14.05-2.09-.54-.51.61-4.72,6.93-5.24,10.82,4.64v.19s5.96-1.02,5.96-1.02l5.57,3.52-2.48-4.07,9.34-1.55,9.9,8.48.15,13.15-4.16-1.9,4.25,4.67Z"/><path class="cls-1" d="m437.24,121.66l-1.62,8.46-.76,1.38c.12.14.2.3.25.49.05.19.07.38.06.58l-.45,1.02c.1.39-.15.85-.76,1.38-.41.48-.43.73-.05.76.36.28.34.53-.05.76-.2.11-.32.23-.36.36-.04.12-.05.24-.02.33.02.1.06.26.11.49.05.23.09.47.14.72-.34.36-.67.56-.99.6-.13.06-.2.14-.21.27s.01.26.07.38l.08.2-.73.9c.39.73.58,1.31.55,1.75l-.1,1.52c.12.14.3.31.54.51l-.9,4.8-7.1,3.61-10.58-3.96v-.19s-18.61,2.25-18.61,2.25l-9.48-9.03.32-7.5,8.84-1.11-8.76-1.45.49-12.73,6.18-16.53,17.87,3.31-1.14,4.21v.09s-.28,1.22-.28,1.22l-.11.18v.1s-.02.19-.02.19c-.91.32-1.47.66-1.69,1.03,0,.06-.03.16-.07.28-.04.12-.07.25-.07.37l-.03.43c-.01.16,0,.32.02.48.02.16.03.29.02.38l-.02.24v.1c-.29.36-.53.69-.74,1,0,.06-.03.21-.08.42-.05.22-.08.47-.1.75s-.02.54,0,.76c.02.22.02.43,0,.62l-.02.28-.15.85-.12,1.71c-.11.63-.14,1.1-.1,1.42.05.19.03.48-.06.85l-1.55,5.99,2.09,5.67,6.79-.49,3.41-29,15.38-.76,1.54,5.34c-.65,1.1-1.45,2.35-2.4,3.74-.95,1.4-1.74,2.48-2.37,3.27l-.94,1.18,6.46-5.37,2.39,8.16Z"/><path class="cls-1" d="m475.2,136.06l11.02,3.23-1,11.83-7.33,1.4c-.19.05-.5-.19-.9-.73l-.93-.26-.8.61c-.52.15-.94.32-1.27.48l-1.71-.12c-.42-.35-.73-.53-.92-.54-.06,0-.27.27-.63.81l-.58.06-1.35.19-.38-.03c-.12-.07-.26.02-.4.26-.14.24-.29.46-.42.64l-.12.37-.21.37-6.95,1.34-14.74-8.72-1.94-6.51,3.13-6.74-4.06,3.72-4.49-15.16,9.45-11.45,6.94-1.24h.09s.58-.05.58-.05l1.1.55c.37.15.59.14.67-.05l.4-.35.98-.41.64.33.79-.42.76-.04c.45-.16.71-.17.77-.04.18.14.37.12.57-.06,0-.06.06-.14.16-.23.1-.09.22-.19.35-.31.13-.12.27-.24.4-.35l7.14-1.32,13.06,8.13-1.35,16.95-21.31-.22,1.15,2.74-4.22.47,5.03,1.58.99,2.26,11.82-3Zm-15.35-16.47l-.96,4.32,14.74.24-1.83-3.93-5.33-2.84-6.63,2.21Z"/></g></svg>