<?xml version="1.0" encoding="UTF-8"?><svg id="Layer_2" xmlns="http://www.w3.org/2000/svg" viewBox="0 0 569.95 245.41"><defs><style>.cls-1{fill:#656665;}.cls-2{fill:#cdcecd;}.cls-3{fill:none;stroke:#88898a;stroke-miterlimit:10;stroke-width:10px;}.cls-4{fill:#a1a09f;opacity:.2;}</style></defs><g id="Layer_30"><path class="cls-1" d="m22.58,209.41l525.69,36c9.2,0,16.66-8.1,16.66-18.09V90.78c0-9.99-7.46-18.09-16.66-18.09L21.66,31.69c-9.2,0-16.66,8.1-16.66,18.09l.92,141.54c0,9.99,7.46,18.09,16.66,18.09Z"/><path class="cls-2" d="m22.23,182.72l525.69,36c9.2,0,16.66-8.1,16.66-18.09V64.09c0-9.99-7.46-18.09-16.66-18.09L21.31,5C12.11,5,4.65,13.1,4.65,23.09l.92,141.54c0,9.99,7.46,18.09,16.66,18.09Z"/><path class="cls-4" d="m555.74,45.37l-175.34-13.68L107.88,188.36l434.47,30.17c9.1,1.44,17.59-5.6,18.95-15.73l8.46-136.48c1.36-10.13-4.91-19.51-14.02-20.95Z"/><path class="cls-3" d="m22.58,182.72l525.69,36c9.2,0,16.66-8.1,16.66-18.09V64.09c0-9.99-7.46-18.09-16.66-18.09L21.66,5C12.46,5,5,13.1,5,23.09l.92,141.54c0,9.99,7.46,18.09,16.66,18.09Z"/></g></svg>