<?xml version="1.0" encoding="UTF-8"?><svg id="Layer_2" xmlns="http://www.w3.org/2000/svg" viewBox="0 0 96.16 125.66"><defs><style>.cls-1{fill:#646565;}.cls-2{fill:#cccccb;stroke:#8b8b8c;stroke-miterlimit:10;stroke-width:8px;}</style></defs><g id="Layer_30"><path class="cls-1" d="m4.15,125.66h61.87c2.29,0,4.15-3.43,4.15-7.66L95.31,14.66c0-4.23-1.86-7.66-4.15-7.66H29.29c-2.29,0-4.15,3.43-4.15,7.66L0,118c0,4.23,1.86,7.66,4.15,7.66Z"/><path class="cls-2" d="m8.93,112.76h56.49c2.09,0,3.78-3.14,3.78-7.02L92.16,11.02c0-3.88-1.69-7.02-3.78-7.02H31.89c-2.09,0-3.78,3.14-3.78,7.02L5.14,105.74c0,3.88,1.69,7.02,3.78,7.02Z"/></g></svg>