<?xml version="1.0" encoding="UTF-8"?><svg id="Layer_2" xmlns="http://www.w3.org/2000/svg" viewBox="0 0 247.07 210.95"><defs><style>.cls-1{fill:#666766;}.cls-2{fill:#cccccb;}.cls-3{fill:#a5a3a2;opacity:.2;}.cls-4{fill:none;stroke:#8b8b8c;stroke-miterlimit:10;stroke-width:8px;}</style></defs><g id="Layer_5"><path class="cls-1" d="m246.87,198.74l-31.81-143.94c-.99-4.46-5.54-7.69-10.85-7.69H18.73c-6.85,0-12.05,5.28-10.88,11.05l29.45,144.96c.92,4.54,5.55,7.85,10.95,7.82l187.84-1.02c6.89-.04,12.06-5.4,10.78-11.19Z"/><path class="cls-2" d="m233.66,164.79L203.35,15.6c-.94-4.62-5.28-7.97-10.34-7.97H16.21c-6.53,0-11.49,5.47-10.37,11.45l28.07,150.24c.88,4.71,5.29,8.14,10.44,8.11l179.04-1.05c6.57-.04,11.5-5.6,10.28-11.6Z"/><path class="cls-3" d="m231.28,164.62L198.64,15.17c-1.01-4.63-5.69-7.98-11.14-7.98h-10.61L39.54,177.22l180.67-.99c7.07-.04,12.38-5.61,11.07-11.62Z"/><path class="cls-4" d="m235.66,167.27L204.86,12.28c-.95-4.8-5.37-8.28-10.51-8.28H14.7c-6.64,0-11.67,5.69-10.54,11.9l28.52,156.08c.89,4.89,5.38,8.45,10.61,8.42l181.93-1.09c6.68-.04,11.68-5.82,10.44-12.05Z"/></g></svg>