<?xml version="1.0" encoding="UTF-8"?><svg id="Layer_2" xmlns="http://www.w3.org/2000/svg" viewBox="0 0 144.56 123.18"><defs><style>.cls-1{fill:#666766;}.cls-2{fill:#cccccb;}.cls-3{fill:#a5a3a2;opacity:.2;}.cls-4{fill:none;stroke:#8b8b8c;stroke-miterlimit:10;stroke-width:8px;}</style></defs><g id="Layer_5"><path class="cls-1" d="m144.44,116.15l-18.59-82.89c-.58-2.57-3.24-4.43-6.34-4.43H11.1c-4.01,0-7.04,3.04-6.36,6.36l17.21,83.48c.54,2.62,3.25,4.52,6.4,4.5l109.79-.59c4.03-.02,7.05-3.11,6.3-6.44Z"/><path class="cls-2" d="m135.33,96.01L118.23,9.94c-.53-2.67-2.98-4.6-5.84-4.6H12.64c-3.69,0-6.48,3.16-5.85,6.61l15.84,86.67c.5,2.72,2.99,4.69,5.89,4.68l101.02-.61c3.71-.02,6.49-3.23,5.8-6.69Z"/><path class="cls-3" d="m134.89,96.5L116.09,10.43c-.58-2.67-3.28-4.6-6.41-4.6h-6.11L24.47,103.75l104.05-.57c4.07-.02,7.13-3.23,6.37-6.69Z"/><path class="cls-4" d="m137.41,98.02L119.67,8.77c-.55-2.76-3.09-4.77-6.05-4.77H10.16c-3.82,0-6.72,3.27-6.07,6.85l16.43,89.89c.51,2.82,3.1,4.87,6.11,4.85l104.77-.63c3.84-.02,6.73-3.35,6.01-6.94Z"/></g></svg>