<?xml version="1.0" encoding="UTF-8"?><svg id="Layer_2" xmlns="http://www.w3.org/2000/svg" viewBox="0 0 656.25 260.53"><defs><style>.cls-1{fill:#656665;}.cls-2{fill:#cdcecd;}.cls-3{fill:none;stroke:#88898a;stroke-miterlimit:10;stroke-width:10px;}.cls-4{fill:#a1a09f;opacity:.2;}</style></defs><g id="Layer_30"><path class="cls-1" d="m630.96,222.26L24.23,260.53c-10.62,0-19.23-8.61-19.23-19.23V96.17c0-10.62,8.61-19.23,19.23-19.23l607.8-43.58c10.62,0,19.23,8.61,19.23,19.23l-1.06,150.44c0,10.62-8.61,19.23-19.23,19.23Z"/><path class="cls-2" d="m631.37,193.89L24.63,232.16c-10.62,0-19.23-8.61-19.23-19.23V67.81c0-10.62,8.61-19.23,19.23-19.23L632.43,5c10.62,0,19.23,8.61,19.23,19.23l-1.06,150.44c0,10.62-8.61,19.23-19.23,19.23Z"/><path class="cls-4" d="m633.59,5l-202.34,14.51L144.08,224.7l488.45-30.8c10.62,0,19.23-8.61,19.23-19.23l1.06-150.44c0-10.62-8.61-19.23-19.23-19.23Z"/><path class="cls-3" d="m630.96,193.89L24.23,232.16c-10.62,0-19.23-8.61-19.23-19.23V67.81c0-10.62,8.61-19.23,19.23-19.23L632.03,5c10.62,0,19.23,8.61,19.23,19.23l-1.06,150.44c0,10.62-8.61,19.23-19.23,19.23Z"/></g></svg>