<?xml version="1.0" encoding="UTF-8"?><svg id="Layer_2" xmlns="http://www.w3.org/2000/svg" viewBox="0 0 96.05 125.66"><defs><style>.cls-1{fill:#646565;}.cls-2{fill:#e5a728;stroke:#8b8b8c;stroke-miterlimit:10;stroke-width:8px;}</style></defs><g id="Layer_30"><path class="cls-1" d="m91.9,125.66H30.03c-2.29,0-4.15-3.43-4.15-7.66L.74,14.66c0-4.23,1.86-7.66,4.15-7.66h61.87c2.29,0,4.15,3.43,4.15,7.66l25.15,103.34c0,4.23-1.86,7.66-4.15,7.66Z"/><path class="cls-2" d="m87.24,112.76H30.75c-2.09,0-3.78-3.14-3.78-7.02L4,11.02c0-3.88,1.69-7.02,3.78-7.02h56.49c2.09,0,3.78,3.14,3.78,7.02l22.96,94.72c0,3.88-1.69,7.02-3.78,7.02Z"/></g></svg>