<?xml version="1.0" encoding="UTF-8"?><svg id="Layer_2" xmlns="http://www.w3.org/2000/svg" viewBox="0 0 247.07 210.95"><defs><style>.cls-1{fill:#666766;}.cls-2{fill:#cccccb;}.cls-3{fill:#a5a3a2;opacity:.2;}.cls-4{fill:none;stroke:#8b8b8c;stroke-miterlimit:10;stroke-width:8px;}</style></defs><g id="Layer_5"><path class="cls-1" d="m.2,198.74L32,54.8c.99-4.46,5.54-7.69,10.85-7.69h185.49c6.85,0,12.05,5.28,10.88,11.05l-29.45,144.96c-.92,4.54-5.55,7.85-10.95,7.82l-187.84-1.02c-6.89-.04-12.06-5.4-10.78-11.19Z"/><path class="cls-2" d="m13.41,164.79L43.72,15.6c.94-4.62,5.28-7.97,10.34-7.97h176.8c6.53,0,11.49,5.47,10.37,11.45l-28.07,150.24c-.88,4.71-5.29,8.14-10.44,8.11l-179.04-1.05c-6.57-.04-11.5-5.6-10.28-11.6Z"/><path class="cls-3" d="m15.79,164.62L48.43,15.17c1.01-4.63,5.69-7.98,11.14-7.98h10.61l137.35,170.03-180.67-.99c-7.07-.04-12.38-5.61-11.07-11.62Z"/><path class="cls-4" d="m11.41,167.27L42.21,12.28c.95-4.8,5.37-8.28,10.51-8.28h179.65c6.64,0,11.67,5.69,10.54,11.9l-28.52,156.08c-.89,4.89-5.38,8.45-10.61,8.42l-181.93-1.09c-6.68-.04-11.68-5.82-10.44-12.05Z"/></g></svg>