<?xml version="1.0" encoding="UTF-8"?><svg id="Layer_2" xmlns="http://www.w3.org/2000/svg" viewBox="0 0 144.56 123.18"><defs><style>.cls-1{fill:#666766;}.cls-2{fill:#cccccb;}.cls-3{fill:#a5a3a2;opacity:.2;}.cls-4{fill:none;stroke:#8b8b8c;stroke-miterlimit:10;stroke-width:8px;}</style></defs><g id="Layer_5"><path class="cls-1" d="m.11,116.15L18.7,33.26c.58-2.57,3.24-4.43,6.34-4.43h108.41c4.01,0,7.04,3.04,6.36,6.36l-17.21,83.48c-.54,2.62-3.25,4.52-6.4,4.5l-109.79-.59c-4.03-.02-7.05-3.11-6.3-6.44Z"/><path class="cls-2" d="m9.22,96.01L26.33,9.94c.53-2.67,2.98-4.6,5.84-4.6h99.76c3.69,0,6.48,3.16,5.85,6.61l-15.84,86.67c-.5,2.72-2.99,4.69-5.89,4.68l-101.02-.61c-3.71-.02-6.49-3.23-5.8-6.69Z"/><path class="cls-3" d="m9.67,96.5L28.47,10.43c.58-2.67,3.28-4.6,6.41-4.6h6.11l79.1,97.92-104.05-.57c-4.07-.02-7.13-3.23-6.37-6.69Z"/><path class="cls-4" d="m7.15,98.02L24.89,8.77c.55-2.76,3.09-4.77,6.05-4.77h103.46c3.82,0,6.72,3.27,6.07,6.85l-16.43,89.89c-.51,2.82-3.1,4.87-6.11,4.85l-104.77-.63c-3.84-.02-6.73-3.35-6.01-6.94Z"/></g></svg>