<?xml version="1.0" encoding="UTF-8"?><svg id="Layer_2" xmlns="http://www.w3.org/2000/svg" viewBox="0 0 656.25 260.53"><defs><style>.cls-1{fill:#fff;}.cls-2{fill:#656665;}.cls-3{fill:#cdcecd;}.cls-4{fill:none;stroke:#88898a;stroke-miterlimit:10;stroke-width:10px;}.cls-5{fill:#a1a09f;opacity:.2;}.cls-6{opacity:.17;}</style></defs><g id="Layer_30"><path class="cls-2" d="m630.96,222.26L24.23,260.53c-10.62,0-19.23-8.61-19.23-19.23V96.17c0-10.62,8.61-19.23,19.23-19.23l607.8-43.58c10.62,0,19.23,8.61,19.23,19.23l-1.06,150.44c0,10.62-8.61,19.23-19.23,19.23Z"/><path class="cls-3" d="m631.37,193.89L24.63,232.16c-10.62,0-19.23-8.61-19.23-19.23V67.81c0-10.62,8.61-19.23,19.23-19.23L632.43,5c10.62,0,19.23,8.61,19.23,19.23l-1.06,150.44c0,10.62-8.61,19.23-19.23,19.23Z"/><path class="cls-5" d="m633.59,5l-202.34,14.51L144.08,224.7l488.45-30.8c10.62,0,19.23-8.61,19.23-19.23l1.06-150.44c0-10.62-8.61-19.23-19.23-19.23Z"/><path class="cls-4" d="m630.96,193.89L24.23,232.16c-10.62,0-19.23-8.61-19.23-19.23V67.81c0-10.62,8.61-19.23,19.23-19.23L632.03,5c10.62,0,19.23,8.61,19.23,19.23l-1.06,150.44c0,10.62-8.61,19.23-19.23,19.23Z"/><g class="cls-6"><path d="m181.4,157.3l.62,2.18-.88,4.58-33.85,6.43-3.83-4.86,4.67-2.84c-2.37.38-4.41.73-6.13,1.04l-5.86-7.38,8.3-10.05,20.1,3.72-.26-4.27-17.41-4.98-13.98-16.75,2.13-4.71c.13-.01.35-.1.65-.27.31-.16.55-.29.74-.37.43-.24.69-.38.78-.42.09-.04.18-.18.25-.42.07-.23.16-.46.27-.66.2-.54.21-.77.02-.69.67-.46.95-.88.84-1.26-.09-.25-.05-.63.12-1.13.17-.51.25-.82.24-.95s.05-.26.2-.41c.15-.15.31-.26.5-.35l.28-.13.86-1.07c-.06-.58-.36-1.26-.9-2.05-.07-.06-.11-.12-.12-.18l2.92-6.46,30.06-1.73,2.55,2.85-7.4,1.96,9.72.62,5.1,5.8c-5.06,5.03-7.78,7.56-8.17,7.6l-23.55-3.15,1.97,7.5,7.43,2.04,4.8,4.76.22-3.44,14.16,3.86,6.61,7.1-2.04,10.17-1.12.51-.59,1.82v1.85s-.93,1.37-.93,1.37c-.3.81-.4,1.47-.28,1.98l.02.19c-.08-.12-.11-.12-.1.01l.21,1.05Z"/><path d="m225.74,141.27l11.65,1.3,1.09,12.08-7.13,2.71c-.19.09-.53-.11-1.04-.57l-.98-.09-.7.76c-.49.25-.89.49-1.19.71l-1.74.18c-.48-.27-.82-.4-1.02-.38-.07,0-.23.32-.49.93l-.57.16-1.32.43-.39.04c-.14-.05-.25.06-.35.33-.1.27-.21.51-.31.72l-.06.4c-.05.14-.1.27-.15.41l-6.75,2.57-16.36-6.16-3.1-6.21,1.95-7.33-3.43,4.46-7.19-14.45,7.47-13.18,6.76-2.47h.1s.57-.17.57-.17l1.21.36c.4.09.62.03.66-.17l.34-.43.91-.58.71.22.72-.56.76-.18c.43-.24.68-.3.76-.18.21.11.4.06.57-.16,0-.06.03-.15.12-.26.09-.11.19-.23.3-.37s.23-.28.35-.43l6.94-2.59,14.57,5.86,1.64,17.29-21.47,3.55,1.64,2.56-4.16,1.22,5.34.7,1.39,2.1,11.36-5.11Zm-18.35-13.85l-.2,4.51,14.87-2.36-2.53-3.63-5.86-1.91-6.27,3.4Z"/><path d="m267.66,133.69l13.36,3.65-2.58,14.22-2.83,5.47-7.11.07c-.01-.13-.09-.22-.22-.27-.14-.05-.24-.1-.31-.16-.08-.19-.29-.33-.63-.42-.14-.05-.22-.09-.26-.12-.04-.03-.1-.07-.21-.12-.1-.05-.19-.11-.26-.17l-.58.06-4.05.43-1.64-.7-.78.96-.58.06-2.38-.33c-.41-.15-.74-.21-1-.19-.19.02-.45.34-.78.96l-6.05-.04-3.14-5.71,5.12-6.89-6.58,4.21-3.28-6.09-.27-18.12-4,.03-3.35-11.35,5.79-.62-1.8-10.54,6.97-9.71,12.49,4.62.54,5.11-4.17,5.71,4.42-3.4.69,6.46,9.6-1.41,5.82,5.23-9.61,9.61-4.55.29.07,3.41c-.26.03-.44.14-.55.35-.18.15-.29.34-.33.57-.04.23-.06.46-.07.69,0,.23-.06.4-.14.5-.09.11-.11.3-.08.59s.09.53.17.71l.14.38.28,2.6c.12-.08.23-.12.33-.13s.21.01.35.06l.05,2.34,4.54,5.08,3.44-7.98Z"/><path d="m312.41,128.93l13.36,3.65-2.58,14.22-2.83,5.47-7.11.07c-.01-.13-.09-.22-.22-.27-.14-.05-.24-.1-.31-.16-.08-.19-.29-.33-.63-.42-.14-.05-.22-.09-.26-.12-.04-.03-.1-.07-.21-.12-.1-.05-.19-.11-.26-.17l-.58.06-4.05.43-1.64-.7-.78.96-.58.06-2.38-.33c-.41-.15-.74-.21-1-.19-.19.02-.45.34-.78.96l-6.05-.04-3.14-5.71,5.12-6.89-6.58,4.21-3.28-6.09-.27-18.12-4,.03-3.35-11.35,5.79-.62-1.8-10.54,6.97-9.71,12.49,4.62.54,5.11-4.17,5.71,4.42-3.4.69,6.46,9.6-1.41,5.82,5.23-9.61,9.61-4.55.29.07,3.41c-.26.03-.44.14-.55.35-.18.15-.29.34-.33.57-.04.23-.06.46-.07.69,0,.23-.06.4-.14.5-.09.11-.11.3-.08.59s.09.53.17.71l.14.38.28,2.6c.12-.08.23-.12.33-.13s.21.01.35.06l.05,2.34,4.54,5.08,3.44-7.98Z"/><path d="m349.95,113.14l.31,13.92-5.27-.9,5.39,3.91.23,13.14-6.32,6.62-9.25.2-7.16-3.14.27-4.81,5.18-2.7-5.07.05.61-12.65c.33-.55.66-1.17.97-1.86l.3-.81c-.24.22-.37.17-.41-.15l.65-2.12c-.24-.43-.46-.93-.65-1.49l1.05-1.09-.59-.03c-.33-.03-.31-.49.05-1.37l-.08-.77-.83-.5.43-8.83,11.15-6.16,2.03,2.61-.54,1.33.64.52c.15-.41.35-.39.59.04l.89,1.08.06,1.46c1.47.36,2.27.6,2.42.72,0,.07-.03.13-.12.21-.09.07-.18.15-.27.22-.09.08-.13.18-.11.3l.54,1.41h.78s.32-.61.32-.61l1.8,2.25Zm-21.23-22.62c-.14-.05-.27-.1-.41-.15l-1.09-2.03,7.26-5.06,7.69-1.11,2.03,2.61-4.54,4.09,6.02-2.1,1.69,2.16-1.44,8.45-12.18,2.86-1.83-3.41-.12-.18c.15-.47.24-.77.29-.91.15-.47-.11-1-.75-1.58-.34-.16-.42-.31-.24-.46.18-.15.26-.32.24-.51l-.03-1.17-.58.06-1.06-.77c-.15-.18-.31-.34-.49-.48-.18-.14-.33-.24-.47-.29Z"/><path d="m403.66,116.5l1.22,6.89-2.29,17.9-18.55.8.38-12.04c-.02-.19.09-.38.33-.57.24-.19.39-.35.44-.49.05-.13.07-.3.04-.49s-.07-.35-.15-.47l-.12-.18.8-.77.67-1.05-1.87-1.07,1.05-1.09-.19-.86-.64-.52c-.09-.25.03-1.21.38-2.87.21-1.06.07-1.5-.43-1.32l.13-1.57-3.37-5.1-6.71,1.98,1.72,15.23-4.69-.96,5.05,4.34,1.18,11.09-15.17,4.15-1.92-3.4-.36-.65.07-1.18-.13-1.25-.19-.86-.66-.71-.62-.32-1.37-.93-.37-.74-2.78-5.07-.38-10.01.58-.94c.06-.07.11-.17.16-.31.05-.13.12-.39.21-.75.09-.37.09-.68,0-.93l-.28-1.73-.05-.48c.05-.13.22-.71.5-1.71.05-.13,0-.24-.13-.33-.14-.08-.31-.15-.51-.19l-.19.02-.29-1.82.58-.94-.12-1.16-.32-2.11-.63-.42-.22-4.85,6.04-6.5,11.71,2.76.02.19,5.83-2.08,6.22,2.56-3.22-3.66,9.12-3.21,11.45,6.78,2.48,13.2-4.52-1.18,5.1,3.94Z"/><path d="m452.06,98.28l-.02,8.98-4.59,5.46,4.65-1.18.03,13.16-1.39,7.07c-.87.35-1.33.63-1.38.83l.06,1.46c.01.13-.14.34-.47.64-.33.3-.64.59-.93.88l-.55.35.86.79.1,1.84-.28,1.01,1.05.67-.38,1.89-.71-.22c-.19.08-.19.35-.02.78.11.44.11.74,0,.88-.12.14-.13.31-.04.49.07.06.12.07.15.03.03-.04.04-.12.02-.25.04.39.03.94-.02,1.66l-1.35,7.46-13.91,7.72-6.1-.52-1.38-.15-.29-.94c-.18-.5-.41-.48-.68.07l-.66.17-.51-.24-1.6-.41-.7-.12-1.11.6c-.54-.14-.91-.29-1.12-.47l-.69-.02-.7.76-2.76-.29-8.88-8.32,11.32-7.25,13.68.2,2.76-6.15-7.54,2.46-10.59-4.14-6.29-6.84-.83-5.96,3.17-6.87-3.87,2.17-1.94-13.65,9.78-10.79,3.87-.31.44.44.68-.07,1.37.05.69.03c.13.05.3.08.5.09.2.01.39-.02.57-.11l.19-.02.92-.49c.22-.35.42-.34.59.03.23.36.48.57.75.6h.88s.69.03.69.03c.06-.07.14-.08.24-.03.1.05.25.07.44.05s.31,0,.35.06c.04.06.11.02.23-.12l.45-.34.85-1.16,10.83-.86,11.12,6.43Zm-17.99,21.62l-.36-12.55-5.45,1.07-5.73,3.93,4.58,10.05,6.95-2.5Z"/><path d="m494.13,105.9l2.11.56,5.26,5.39-1.76,5.46-6.7-1.53c2.5,2.14,4.4,3.73,5.68,4.76l-3.67,11.32-9.57,1.7-1.72-.6-1.35.14-.63.46-.66.27-.83-.5-1.54.16-.27.22-.58.06-1.64.17-1.19.71-.69.85-1.62.37-7.57,1.29-8.93-10.56,7.2-9.35,15.57,3.32-2.43-3.55-8.77-2.68-14.19-12.34,2.77-4.2.67-1.05c.43.41.79.37,1.06-.11.11-.21.18-.47.21-.8.03-.33.04-.59.02-.78l-.02-.19.51-.74.48-.05.35-1.31.67-1.05.96-.1c-.08-.12-.11-.26-.09-.43.02-.16.05-.31.1-.45.05-.13.1-.27.15-.41.05-.13.1-.27.15-.41.05-.13.13-.31.24-.51l.09-.11.84-1.26,1.84-2.83,13.46-.94,5.74,3.49-2.25-3.76,11.13-.79,7.94,8.62c-2.76,5.24-4.27,7.87-4.53,7.89l-17.93-3.46,1.48,5.69,1.1.27c-.05.14,0,.24.13.33.14.08.34.14.6.18.26.04.54.07.84.11.3.03.64.08,1.04.13.4.06.73.13,1,.23l.81.3.02.19c-.17.21-.24.51-.2.9.13.64.32.62.58-.06l1.18.07c.28-.42.67-.46,1.16-.12l.09.87,2.99-.32v.97c.04.32.19.52.46.59.27.07.53.06.78-.03l.39-.04c.5-.18,1-.4,1.49-.65Z"/></g><path class="cls-1" d="m189.98,153l.62,2.18-.88,4.58-33.85,6.43-3.83-4.86,4.67-2.84c-2.37.38-4.41.73-6.13,1.04l-5.86-7.38,8.3-10.05,20.1,3.72-.26-4.27-17.41-4.98-13.98-16.75,2.13-4.71c.13-.01.35-.1.65-.27.31-.16.55-.29.74-.37.43-.24.69-.38.78-.42.09-.04.18-.18.25-.42.07-.23.16-.46.27-.66.2-.54.21-.77.02-.69.67-.46.95-.88.84-1.26-.09-.25-.05-.63.12-1.13.17-.51.25-.82.24-.95s.05-.26.2-.41c.15-.15.31-.26.5-.35l.28-.13.86-1.07c-.06-.58-.36-1.26-.9-2.05-.07-.06-.11-.12-.12-.18l2.92-6.46,30.06-1.73,2.55,2.85-7.4,1.96,9.72.62,5.1,5.8c-5.06,5.03-7.78,7.56-8.17,7.6l-23.55-3.15,1.97,7.5,7.43,2.04,4.8,4.76.22-3.44,14.16,3.86,6.61,7.1-2.04,10.17-1.12.51-.59,1.82v1.85s-.93,1.37-.93,1.37c-.3.81-.4,1.47-.28,1.98l.02.19c-.08-.12-.11-.12-.1.01l.21,1.05Z"/><path class="cls-1" d="m234.32,136.97l11.65,1.3,1.09,12.08-7.13,2.71c-.19.09-.53-.11-1.04-.57l-.98-.09-.7.76c-.49.25-.89.49-1.19.71l-1.74.18c-.48-.27-.82-.4-1.02-.38-.07,0-.23.32-.49.93l-.57.16-1.32.43-.39.04c-.14-.05-.25.06-.35.33-.1.27-.21.51-.31.72l-.06.4c-.05.14-.1.27-.15.41l-6.75,2.57-16.36-6.16-3.1-6.21,1.95-7.33-3.43,4.46-7.19-14.45,7.47-13.18,6.76-2.47h.1s.57-.17.57-.17l1.21.36c.4.09.62.03.66-.17l.34-.43.91-.58.71.22.72-.56.76-.18c.43-.24.68-.3.76-.18.21.11.4.06.57-.16,0-.06.03-.15.12-.26.09-.11.19-.23.3-.37s.23-.28.35-.43l6.94-2.59,14.57,5.86,1.64,17.29-21.47,3.55,1.64,2.56-4.16,1.22,5.34.7,1.39,2.1,11.36-5.11Zm-18.35-13.85l-.2,4.51,14.87-2.36-2.53-3.63-5.86-1.91-6.27,3.4Z"/><path class="cls-1" d="m276.24,129.39l13.36,3.65-2.58,14.22-2.83,5.47-7.11.07c-.01-.13-.09-.22-.22-.27-.14-.05-.24-.1-.31-.16-.08-.19-.29-.33-.63-.42-.14-.05-.22-.09-.26-.12-.04-.03-.1-.07-.21-.12-.1-.05-.19-.11-.26-.17l-.58.06-4.05.43-1.64-.7-.78.96-.58.06-2.38-.33c-.41-.15-.74-.21-1-.19-.19.02-.45.34-.78.96l-6.05-.04-3.14-5.71,5.12-6.89-6.58,4.21-3.28-6.09-.27-18.12-4,.03-3.35-11.35,5.79-.62-1.8-10.54,6.97-9.71,12.49,4.62.54,5.11-4.17,5.71,4.42-3.4.69,6.46,9.6-1.41,5.82,5.23-9.61,9.61-4.55.29.07,3.41c-.26.03-.44.14-.55.35-.18.15-.29.34-.33.57-.04.23-.06.46-.07.69,0,.23-.06.4-.14.5-.09.11-.11.3-.08.59s.09.53.17.71l.14.38.28,2.6c.12-.08.23-.12.33-.13s.21.01.35.06l.05,2.34,4.54,5.08,3.44-7.98Z"/><path class="cls-1" d="m320.99,124.63l13.36,3.65-2.58,14.22-2.83,5.47-7.11.07c-.01-.13-.09-.22-.22-.27-.14-.05-.24-.1-.31-.16-.08-.19-.29-.33-.63-.42-.14-.05-.22-.09-.26-.12-.04-.03-.1-.07-.21-.12-.1-.05-.19-.11-.26-.17l-.58.06-4.05.43-1.64-.7-.78.96-.58.06-2.38-.33c-.41-.15-.74-.21-1-.19-.19.02-.45.34-.78.96l-6.05-.04-3.14-5.71,5.12-6.89-6.58,4.21-3.28-6.09-.27-18.12-4,.03-3.35-11.35,5.79-.62-1.8-10.54,6.97-9.71,12.49,4.62.54,5.11-4.17,5.71,4.42-3.4.69,6.46,9.6-1.41,5.82,5.23-9.61,9.61-4.55.29.07,3.41c-.26.03-.44.14-.55.35-.18.15-.29.34-.33.57-.04.23-.06.46-.07.69,0,.23-.06.4-.14.5-.09.11-.11.3-.08.59s.09.53.17.71l.14.38.28,2.6c.12-.08.23-.12.33-.13s.21.01.35.06l.05,2.34,4.54,5.08,3.44-7.98Z"/><path class="cls-1" d="m358.52,108.84l.31,13.92-5.27-.9,5.39,3.91.23,13.14-6.32,6.62-9.25.2-7.16-3.14.27-4.81,5.18-2.7-5.07.05.61-12.65c.33-.55.66-1.17.97-1.86l.3-.81c-.24.22-.37.17-.41-.15l.65-2.12c-.24-.43-.46-.93-.65-1.49l1.05-1.09-.59-.03c-.33-.03-.31-.49.05-1.37l-.08-.77-.83-.5.43-8.83,11.15-6.16,2.03,2.61-.54,1.33.64.52c.15-.41.35-.39.59.04l.89,1.08.06,1.46c1.47.36,2.27.6,2.42.72,0,.07-.03.13-.12.21-.09.07-.18.15-.27.22-.09.08-.13.18-.11.3l.54,1.41h.78s.32-.61.32-.61l1.8,2.25Zm-21.23-22.62c-.14-.05-.27-.1-.41-.15l-1.09-2.03,7.26-5.06,7.69-1.11,2.03,2.61-4.54,4.09,6.02-2.1,1.69,2.16-1.44,8.45-12.18,2.86-1.83-3.41-.12-.18c.15-.47.24-.77.29-.91.15-.47-.11-1-.75-1.58-.34-.16-.42-.31-.24-.46.18-.15.26-.32.24-.51l-.03-1.17-.58.06-1.06-.77c-.15-.18-.31-.34-.49-.48-.18-.14-.33-.24-.47-.29Z"/><path class="cls-1" d="m412.24,112.2l1.22,6.89-2.29,17.9-18.55.8.38-12.04c-.02-.19.09-.38.33-.57.24-.19.39-.35.44-.49.05-.13.07-.3.04-.49s-.07-.35-.15-.47l-.12-.18.8-.77.67-1.05-1.87-1.07,1.05-1.09-.19-.86-.64-.52c-.09-.25.03-1.21.38-2.87.21-1.06.07-1.5-.43-1.32l.13-1.57-3.37-5.1-6.71,1.98,1.72,15.23-4.69-.96,5.05,4.34,1.18,11.09-15.17,4.15-1.92-3.4-.36-.65.07-1.18-.13-1.25-.19-.86-.66-.71-.62-.32-1.37-.93-.37-.74-2.78-5.07-.38-10.01.58-.94c.06-.07.11-.17.16-.31.05-.13.12-.39.21-.75.09-.37.09-.68,0-.93l-.28-1.73-.05-.48c.05-.13.22-.71.5-1.71.05-.13,0-.24-.13-.33-.14-.08-.31-.15-.51-.19l-.19.02-.29-1.82.58-.94-.12-1.16-.32-2.11-.63-.42-.22-4.85,6.04-6.5,11.71,2.76.02.19,5.83-2.08,6.22,2.56-3.22-3.66,9.12-3.21,11.45,6.78,2.48,13.2-4.52-1.18,5.1,3.94Z"/><path class="cls-1" d="m460.63,93.98l-.02,8.98-4.59,5.46,4.65-1.18.03,13.16-1.39,7.07c-.87.35-1.33.63-1.38.83l.06,1.46c.01.13-.14.34-.47.64-.33.3-.64.59-.93.88l-.55.35.86.79.1,1.84-.28,1.01,1.05.67-.38,1.89-.71-.22c-.19.08-.19.35-.02.78.11.44.11.74,0,.88-.12.14-.13.31-.04.49.07.06.12.07.15.03.03-.04.04-.12.02-.25.04.39.03.94-.02,1.66l-1.35,7.46-13.91,7.72-6.1-.52-1.38-.15-.29-.94c-.18-.5-.41-.48-.68.07l-.66.17-.51-.24-1.6-.41-.7-.12-1.11.6c-.54-.14-.91-.29-1.12-.47l-.69-.02-.7.76-2.76-.29-8.88-8.32,11.32-7.25,13.68.2,2.76-6.15-7.54,2.46-10.59-4.14-6.29-6.84-.83-5.96,3.17-6.87-3.87,2.17-1.94-13.65,9.78-10.79,3.87-.31.44.44.68-.07,1.37.05.69.03c.13.05.3.08.5.09.2.01.39-.02.57-.11l.19-.02.92-.49c.22-.35.42-.34.59.03.23.36.48.57.75.6h.88s.69.03.69.03c.06-.07.14-.08.24-.03.1.05.25.07.44.05s.31,0,.35.06c.04.06.11.02.23-.12l.45-.34.85-1.16,10.83-.86,11.12,6.43Zm-17.99,21.62l-.36-12.55-5.45,1.07-5.73,3.93,4.58,10.05,6.95-2.5Z"/><path class="cls-1" d="m502.7,101.6l2.11.56,5.26,5.39-1.76,5.46-6.7-1.53c2.5,2.14,4.4,3.73,5.68,4.76l-3.67,11.32-9.57,1.7-1.72-.6-1.35.14-.63.46-.66.27-.83-.5-1.54.16-.27.22-.58.06-1.64.17-1.19.71-.69.85-1.62.37-7.57,1.29-8.93-10.56,7.2-9.35,15.57,3.32-2.43-3.55-8.77-2.68-14.19-12.34,2.77-4.2.67-1.05c.43.41.79.37,1.06-.11.11-.21.18-.47.21-.8.03-.33.04-.59.02-.78l-.02-.19.51-.74.48-.05.35-1.31.67-1.05.96-.1c-.08-.12-.11-.26-.09-.43.02-.16.05-.31.1-.45.05-.13.1-.27.15-.41.05-.13.1-.27.15-.41.05-.13.13-.31.24-.51l.09-.11.84-1.26,1.84-2.83,13.46-.94,5.74,3.49-2.25-3.76,11.13-.79,7.94,8.62c-2.76,5.24-4.27,7.87-4.53,7.89l-17.93-3.46,1.48,5.69,1.1.27c-.05.14,0,.24.13.33.14.08.34.14.6.18.26.04.54.07.84.11.3.03.64.08,1.04.13.4.06.73.13,1,.23l.81.3.02.19c-.17.21-.24.51-.2.9.13.64.32.62.58-.06l1.18.07c.28-.42.67-.46,1.16-.12l.09.87,2.99-.32v.97c.04.32.19.52.46.59.27.07.53.06.78-.03l.39-.04c.5-.18,1-.4,1.49-.65Z"/></g></svg>