<?xml version="1.0" encoding="UTF-8"?><svg id="Layer_2" xmlns="http://www.w3.org/2000/svg" viewBox="0 0 656.25 260.4"><defs><style>.cls-1{fill:#fff;}.cls-2{fill:#656665;}.cls-3{fill:#cdcecd;}.cls-4{fill:none;stroke:#88898a;stroke-miterlimit:10;stroke-width:10px;}.cls-5{fill:#a1a09f;opacity:.2;}.cls-6{opacity:.17;}</style></defs><g id="Layer_30"><path class="cls-2" d="m630.93,222.38L24.18,260.4c-10.62,0-19.22-8.62-19.22-19.24l.06-145.12c0-10.62,8.62-19.22,19.24-19.22l607.81-43.34c10.62,0,19.22,8.62,19.22,19.24l-1.12,150.44c0,10.62-8.62,19.22-19.24,19.22Z"/><path class="cls-3" d="m631.37,193.89L24.63,232.16c-10.62,0-19.23-8.61-19.23-19.23V67.81c0-10.62,8.61-19.23,19.23-19.23L632.43,5c10.62,0,19.23,8.61,19.23,19.23l-1.06,150.44c0,10.62-8.61,19.23-19.23,19.23Z"/><path class="cls-5" d="m633.59,5l-202.34,14.51L144.08,224.7l488.45-30.8c10.62,0,19.23-8.61,19.23-19.23l1.06-150.44c0-10.62-8.61-19.23-19.23-19.23Z"/><path class="cls-4" d="m630.96,193.89L24.23,232.16c-10.62,0-19.23-8.61-19.23-19.23V67.81c0-10.62,8.61-19.23,19.23-19.23L632.03,5c10.62,0,19.23,8.61,19.23,19.23l-1.06,150.44c0,10.62-8.61,19.23-19.23,19.23Z"/><g class="cls-6"><path d="m110.4,161.73l.56,2.22-1.02,4.6-34.4,5.51-3.73-5.02,4.81-2.73c-2.4.32-4.48.61-6.23.88l-5.71-7.63,8.68-9.92,20.21,4.34-.14-4.32-17.45-5.54-13.64-17.34,2.29-4.7c.13,0,.35-.09.67-.25.31-.16.57-.27.76-.35.44-.23.71-.36.81-.41.1-.04.18-.18.26-.41.08-.23.18-.46.29-.66.22-.54.24-.77.05-.69.69-.45.98-.86.89-1.25-.08-.25-.03-.64.16-1.14.19-.51.28-.82.27-.96s.06-.27.21-.41c.15-.14.32-.25.52-.33l.29-.12.9-1.05c-.05-.59-.33-1.29-.85-2.1-.07-.06-.11-.12-.11-.19l3.14-6.44,30.43-.88,2.49,2.95-7.54,1.76,9.81.91,4.99,6.01c-5.26,4.93-8.08,7.41-8.47,7.44l-23.71-3.87,1.77,7.64,7.46,2.28,4.71,4.95.32-3.47,14.2,4.31,6.47,7.37-2.36,10.22-1.14.48-.65,1.82-.05,1.87-.98,1.36c-.33.81-.44,1.48-.34,1.99l.02.2c-.08-.12-.11-.12-.1,0l.18,1.07Z"/><path d="m147.02,144.34l13.4,4.08-3.03,14.3-3.02,5.45-7.19-.13c-.01-.13-.08-.22-.22-.28-.14-.05-.24-.11-.31-.17-.08-.19-.29-.34-.62-.44-.14-.05-.22-.1-.26-.13-.04-.03-.1-.07-.21-.13-.1-.06-.19-.12-.26-.18l-.59.05-4.11.32-1.63-.76-.81.95-.59.05-2.39-.4c-.41-.16-.74-.24-1-.22-.19.02-.47.33-.81.95l-6.12-.22-3.01-5.87,5.38-6.81-6.77,4.06-3.14-6.25.26-18.32-4.04-.08-3.06-11.57,5.87-.45-1.52-10.7,7.32-9.62,12.49,5.04.4,5.18-4.38,5.65,4.57-3.3.51,6.55,9.75-1.15,5.74,5.46-9.99,9.43-4.61.16-.03,3.44c-.26.02-.45.13-.56.34-.19.15-.3.33-.35.57-.05.23-.08.47-.09.7-.02.23-.07.4-.16.5-.09.11-.12.3-.1.6s.07.54.15.73l.13.38.2,2.64c.12-.08.24-.12.33-.12s.21.02.35.07v2.36s4.43,5.26,4.43,5.26l3.71-7.96Z"/><path d="m213.33,124.07l-.39.03c-.06,0-.12.11-.17.31-.05.2-.03.49.07.88.09.32.16.66.23,1.02s.11.6.15.73c.04.13.05.26.03.39-.02.13-.09.29-.21.46-.12.17-.25.36-.4.57-.15.21-.27.35-.36.42s-.13.17-.12.3.21.38.6.74c.39.36.59.58.59.64l.08,1.08-.4,1.21c.69.47,1.05.87,1.08,1.2l1.32,17.11-4.54-.14,4.76,3.07.21,2.74-5.95,7.05-9.19.71-5.57-2.13-4.99,2.94-14.68-.34-8.4-5.65-5.37-18.57,5.05-4.62-5.88,1.64-1.88-6.45,9.91-11.78,4.08-.61c.13.06.27.11.41.17.06,0,.1.03.11.09l.88-.07.94-.56.88-.07c.25-.15.48-.17.68-.05.14.05.33.07.59.05l1.08-.08c.13-.01.34.17.63.54l.27-.32.35-.52c.12-.14.24-.28.36-.42l11.75-1.99,5.27,3.33,6.65-4.25,9.09,4.31.38,4.89Zm-20.03,20.83l-.06-10.91-4.27-3.11-6.08,1.55-4.71,6.56,5.77,9.69,3.44-1.35-.59,3.78,3.35-4.98,3.15-1.23Z"/><path d="m267.25,116.55l1.18,10.14-2.17,1.15-4.21.33-.88,1.35-1.86.14-.56.44.08.98-1.07.18-.79-.04c-.27-.04-.33.03-.18.21l.23.47.34.56-5.57,2.99-4.64-9.18-6.97,1.42.49,16.49-5.56-3.21,5.69,6.15.34,10.79-15.61,2.98-7.23-15.97.5-11.35c.01-.65.21-1.16.57-1.52.18-.21.23-.39.15-.55-.08-.16-.22-.26-.42-.31l-.2-.08.04-.79-.03-.39.05-.59c.39-.88.72-1.33.98-1.35.06-.07.08-.2.07-.4s-.06-.39-.14-.58l-.22-.28c.36-.42.83-.75,1.4-.99.19-.15.24-.25.17-.31-.07-.06-.22-.15-.46-.26-.24-.11-.36-.23-.37-.36l-.91-.32-.05-.59,1.43-.6-.74-.63-.09-1.17.68-.05-1.37-1.17.16-4.24,6.61-6.12,11.5,3.73.02.2,7.33-1.94,10.11,4.82c-2.75-2.48-4.93-4.4-6.55-5.79l7.81-2.08,10.93,7.71Z"/><path d="m301.53,132.4l13.4,4.08-3.03,14.3-3.02,5.45-7.19-.13c-.01-.13-.08-.22-.22-.28-.14-.05-.24-.11-.31-.17-.08-.19-.29-.34-.62-.44-.14-.05-.22-.1-.26-.13-.04-.03-.1-.07-.21-.13-.1-.06-.19-.12-.26-.18l-.59.05-4.11.32-1.63-.76-.81.95-.59.05-2.39-.4c-.41-.16-.74-.24-1-.22-.19.02-.47.33-.81.95l-6.12-.22-3.01-5.87,5.38-6.81-6.77,4.06-3.14-6.25.26-18.32-4.04-.08-3.06-11.57,5.87-.45-1.52-10.7,7.32-9.62,12.49,5.04.4,5.18-4.38,5.65,4.57-3.3.51,6.55,9.75-1.15,5.74,5.46-9.99,9.43-4.61.16-.03,3.44c-.26.02-.45.13-.56.34-.19.15-.3.33-.35.57-.05.23-.08.47-.09.7-.02.23-.07.4-.16.5-.09.11-.12.3-.1.6s.07.54.15.73l.13.38.2,2.64c.12-.08.24-.12.33-.12s.21.02.35.07v2.36s4.43,5.26,4.43,5.26l3.71-7.96Z"/><path d="m395.55,109.19l-.28,9.07-4.8,5.39,4.74-1.05-.35,13.31-1.61,7.11c-.89.33-1.37.6-1.41.8l.02,1.47c.01.13-.16.34-.49.63-.34.29-.66.58-.97.86l-.56.34.85.82.05,1.87-.32,1.01,1.04.71-.44,1.9-.71-.24c-.19.08-.2.34-.04.79.1.45.09.75-.03.89-.12.14-.14.31-.06.5.07.06.12.07.15.04s.04-.12.03-.25c.03.39,0,.95-.07,1.68l-1.58,7.5-14.28,7.4-6.15-.71-1.39-.19-.27-.96c-.17-.51-.4-.49-.68.05l-.68.15-.51-.26-1.61-.47-.7-.14-1.14.58c-.54-.16-.91-.32-1.12-.5l-.69-.04-.73.74-2.78-.38-8.74-8.67,11.66-7,13.82.6,2.97-6.13-7.69,2.27-10.58-4.49-6.16-7.1-.66-6.05,3.4-6.85-3.97,2.08-1.56-13.85,10.2-10.63,3.92-.2.43.46.68-.05,1.38.09.69.04c.14.06.3.09.5.11.2.02.39-.01.58-.09l.2-.02.95-.47c.23-.35.43-.33.6.05.23.38.47.59.74.63l.89.03.69.04c.06-.07.14-.08.25-.02.1.06.25.08.45.06s.31.01.35.07c.04.06.12.02.24-.12l.47-.33.9-1.15,10.97-.55,11.05,6.82Zm-18.81,21.33v-12.69s-5.53.92-5.53.92l-5.9,3.8,4.34,10.29,7.1-2.32Z"/><path d="m451.35,105.67l-.39.03c-.06,0-.12.11-.17.31-.05.2-.03.49.07.88.09.32.16.66.23,1.02s.11.6.15.73c.04.13.05.26.03.39-.02.13-.09.29-.21.46-.12.17-.25.36-.4.57-.15.21-.27.35-.36.42s-.13.17-.12.3.21.38.6.74c.39.36.59.58.59.64l.08,1.08-.4,1.21c.69.47,1.05.87,1.08,1.2l1.32,17.11-4.54-.14,4.76,3.07.21,2.74-5.95,7.05-9.19.71-5.57-2.13-4.99,2.94-14.68-.34-8.4-5.65-5.37-18.57,5.05-4.62-5.88,1.64-1.88-6.45,9.91-11.78,4.08-.61c.13.06.27.11.41.17.06,0,.1.03.11.09l.88-.07.94-.56.88-.07c.25-.15.48-.17.68-.05.14.05.33.07.59.05l1.08-.08c.13-.01.34.17.63.54l.27-.32.35-.52c.12-.14.24-.28.36-.42l11.75-1.99,5.27,3.33,6.65-4.25,9.09,4.31.38,4.89Zm-20.03,20.83l-.06-10.91-4.27-3.11-6.08,1.55-4.71,6.56,5.77,9.69,3.44-1.35-.59,3.78,3.35-4.98,3.15-1.23Z"/><path d="m531.88,112.82l1.22,9.35-2.12,13.35-18.93-.6,1.69-15.08,7.3-4.89-6.88,1.32.75-6.85-2.97-5.38-5.99,1.45.17,18.78-2.21,13.35-18.74-.62,1.09-10.12,1.33-.6c.38-.16.61-.36.69-.59.08-.24.07-.53-.02-.88-.09-.35-.14-.56-.15-.63v-1.08s-.84-.92-.84-.92c-.09-.25-.05-.45.1-.6.15-.14.29-.32.4-.52.11-.21.17-.37.16-.5l-.02-.2-.18-2.35-.35-.76.15-1.88c.23-.35.41-.62.53-.83.18-.21.06-.43-.35-.66l.31-2.38-2.97-5.38-6.96,1.52.45,14.72-5.91-2.59,6.04,6.81.37,11.19-15.61,2.98-7.23-15.87.46-10.56.26-.51c.13-.07.12-.29,0-.64-.13-.35-.17-.69-.13-1.02.05-.13.13-.27.21-.41.09-.14.19-.24.32-.32.12-.08.24-.13.33-.17.1-.04.18-.06.24-.07l.2-.02-.32-4.11c-.07-.06-.16-.12-.26-.18-.1-.06-.23-.18-.37-.36-.15-.18-.21-.36-.19-.53.02-.16.15-.36.4-.57.24-.22.52-.47.83-.75.31-.29.51-.6.62-.93l-1.41-1.76-.14-1.76.16-4.34,6.62-6.02,11.5,3.64.02.29,8.38-2.32,7.25,4.75-4.07-5.59,7.13-1.93,4.99,3.45,19.79-4.87,10.52,6.27.56,4.68.17,2.15-.9,2.33c.43,1.35.5,2.19.2,2.54l-.44.63c-.57.24-.54.63.09,1.17l1.51,1.66.11,1.37c-.58.96-.53,1.65.16,2.05.21.18.52.42.94.71Z"/><path d="m573.13,114.55l11.74,1.65.75,12.24-7.28,2.53c-.19.08-.54-.12-1.03-.61l-.99-.12-.73.74c-.51.24-.92.46-1.23.69l-1.76.14c-.48-.29-.82-.43-1.02-.41-.07,0-.24.31-.52.93l-.58.14-1.35.4-.39.03c-.14-.05-.26.05-.37.32-.11.27-.22.51-.34.71l-.07.4c-.05.14-.11.27-.16.41l-6.9,2.4-16.36-6.7-2.95-6.36,2.19-7.35-3.59,4.41-6.85-14.82,7.94-13.11,6.91-2.3h.1s.58-.15.58-.15l1.21.4c.4.1.63.05.68-.15l.36-.42.94-.56.71.24.74-.55.77-.16c.44-.23.7-.28.77-.16.21.12.4.07.58-.14,0-.06.04-.15.13-.26l.32-.37.36-.42,7.09-2.42,14.56,6.35,1.16,17.52-21.81,2.97,1.58,2.63-4.24,1.12,5.38.86,1.35,2.16,11.63-4.83Zm-18.14-14.53l-.34,4.55,15.1-1.95-2.45-3.75-5.87-2.1-6.44,3.25Z"/></g><path class="cls-1" d="m114.95,155.43l.56,2.22-1.02,4.6-34.4,5.51-3.73-5.02,4.81-2.73c-2.4.32-4.48.61-6.23.88l-5.71-7.63,8.68-9.92,20.21,4.34-.14-4.32-17.45-5.54-13.64-17.34,2.29-4.7c.13,0,.35-.09.67-.25.31-.16.57-.27.76-.35.44-.23.71-.36.81-.41.1-.04.18-.18.26-.41.08-.23.18-.46.29-.66.22-.54.24-.77.05-.69.69-.45.98-.86.89-1.25-.08-.25-.03-.64.16-1.14.19-.51.28-.82.27-.96s.06-.27.21-.41c.15-.14.32-.25.52-.33l.29-.12.9-1.05c-.05-.59-.33-1.29-.85-2.1-.07-.06-.11-.12-.11-.19l3.14-6.44,30.43-.88,2.49,2.95-7.54,1.76,9.81.91,4.99,6.01c-5.26,4.93-8.08,7.41-8.47,7.44l-23.71-3.87,1.77,7.64,7.46,2.28,4.71,4.95.32-3.47,14.2,4.31,6.47,7.37-2.36,10.22-1.14.48-.65,1.82-.05,1.87-.98,1.36c-.33.81-.44,1.48-.34,1.99l.02.2c-.08-.12-.11-.12-.1,0l.18,1.07Z"/><path class="cls-1" d="m151.57,138.03l13.4,4.08-3.03,14.3-3.02,5.45-7.19-.13c-.01-.13-.08-.22-.22-.28-.14-.05-.24-.11-.31-.17-.08-.19-.29-.34-.62-.44-.14-.05-.22-.1-.26-.13-.04-.03-.1-.07-.21-.13-.1-.06-.19-.12-.26-.18l-.59.05-4.11.32-1.63-.76-.81.95-.59.05-2.39-.4c-.41-.16-.74-.24-1-.22-.19.02-.47.33-.81.95l-6.12-.22-3.01-5.87,5.38-6.81-6.77,4.06-3.14-6.25.26-18.32-4.04-.08-3.06-11.57,5.87-.45-1.52-10.7,7.32-9.62,12.49,5.04.4,5.18-4.38,5.65,4.57-3.3.51,6.55,9.75-1.15,5.74,5.46-9.99,9.43-4.61.16-.03,3.44c-.26.02-.45.13-.56.34-.19.15-.3.33-.35.57-.05.23-.08.47-.09.7-.02.23-.07.4-.16.5-.09.11-.12.3-.1.6s.07.54.15.73l.13.38.2,2.64c.12-.08.24-.12.33-.12s.21.02.35.07v2.36s4.43,5.26,4.43,5.26l3.71-7.96Z"/><path class="cls-1" d="m217.88,117.76l-.39.03c-.06,0-.12.11-.17.31-.05.2-.03.49.07.88.09.32.16.66.23,1.02s.11.6.15.73c.04.13.05.26.03.39-.02.13-.09.29-.21.46-.12.17-.25.36-.4.57-.15.21-.27.35-.36.42s-.13.17-.12.3.21.38.6.74c.39.36.59.58.59.64l.08,1.08-.4,1.21c.69.47,1.05.87,1.08,1.2l1.32,17.11-4.54-.14,4.76,3.07.21,2.74-5.95,7.05-9.19.71-5.57-2.13-4.99,2.94-14.68-.34-8.4-5.65-5.37-18.57,5.05-4.62-5.88,1.64-1.88-6.45,9.91-11.78,4.08-.61c.13.06.27.11.41.17.06,0,.1.03.11.09l.88-.07.94-.56.88-.07c.25-.15.48-.17.68-.05.14.05.33.07.59.05l1.08-.08c.13-.01.34.17.63.54l.27-.32.35-.52c.12-.14.24-.28.36-.42l11.75-1.99,5.27,3.33,6.65-4.25,9.09,4.31.38,4.89Zm-20.03,20.83l-.06-10.91-4.27-3.11-6.08,1.55-4.71,6.56,5.77,9.69,3.44-1.35-.59,3.78,3.35-4.98,3.15-1.23Z"/><path class="cls-1" d="m271.8,110.25l1.18,10.14-2.17,1.15-4.21.33-.88,1.35-1.86.14-.56.44.08.98-1.07.18-.79-.04c-.27-.04-.33.03-.18.21l.23.47.34.56-5.57,2.99-4.64-9.18-6.97,1.42.49,16.49-5.56-3.21,5.69,6.15.34,10.79-15.61,2.98-7.23-15.97.5-11.35c.01-.65.21-1.16.57-1.52.18-.21.23-.39.15-.55-.08-.16-.22-.26-.42-.31l-.2-.08.04-.79-.03-.39.05-.59c.39-.88.72-1.33.98-1.35.06-.07.08-.2.07-.4s-.06-.39-.14-.58l-.22-.28c.36-.42.83-.75,1.4-.99.19-.15.24-.25.17-.31-.07-.06-.22-.15-.46-.26-.24-.11-.36-.23-.37-.36l-.91-.32-.05-.59,1.43-.6-.74-.63-.09-1.17.68-.05-1.37-1.17.16-4.24,6.61-6.12,11.5,3.73.02.2,7.33-1.94,10.11,4.82c-2.75-2.48-4.93-4.4-6.55-5.79l7.81-2.08,10.93,7.71Z"/><path class="cls-1" d="m306.08,126.09l13.4,4.08-3.03,14.3-3.02,5.45-7.19-.13c-.01-.13-.08-.22-.22-.28-.14-.05-.24-.11-.31-.17-.08-.19-.29-.34-.62-.44-.14-.05-.22-.1-.26-.13-.04-.03-.1-.07-.21-.13-.1-.06-.19-.12-.26-.18l-.59.05-4.11.32-1.63-.76-.81.95-.59.05-2.39-.4c-.41-.16-.74-.24-1-.22-.19.02-.47.33-.81.95l-6.12-.22-3.01-5.87,5.38-6.81-6.77,4.06-3.14-6.25.26-18.32-4.04-.08-3.06-11.57,5.87-.45-1.52-10.7,7.32-9.62,12.49,5.04.4,5.18-4.38,5.65,4.57-3.3.51,6.55,9.75-1.15,5.74,5.46-9.99,9.43-4.61.16-.03,3.44c-.26.02-.45.13-.56.34-.19.15-.3.33-.35.57-.05.23-.08.47-.09.7-.02.23-.07.4-.16.5-.09.11-.12.3-.1.6s.07.54.15.73l.13.38.2,2.64c.12-.08.24-.12.33-.12s.21.02.35.07v2.36s4.43,5.26,4.43,5.26l3.71-7.96Z"/><path class="cls-1" d="m400.1,102.89l-.28,9.07-4.8,5.39,4.74-1.05-.35,13.31-1.61,7.11c-.89.33-1.37.6-1.41.8l.02,1.47c.01.13-.16.34-.49.63-.34.29-.66.58-.97.86l-.56.34.85.82.05,1.87-.32,1.01,1.04.71-.44,1.9-.71-.24c-.19.08-.2.34-.04.79.1.45.09.75-.03.89-.12.14-.14.31-.06.5.07.06.12.07.15.04s.04-.12.03-.25c.03.39,0,.95-.07,1.68l-1.58,7.5-14.28,7.4-6.15-.71-1.39-.19-.27-.96c-.17-.51-.4-.49-.68.05l-.68.15-.51-.26-1.61-.47-.7-.14-1.14.58c-.54-.16-.91-.32-1.12-.5l-.69-.04-.73.74-2.78-.38-8.74-8.67,11.66-7,13.82.6,2.97-6.13-7.69,2.27-10.58-4.49-6.16-7.1-.66-6.05,3.4-6.85-3.97,2.08-1.56-13.85,10.2-10.63,3.92-.2.43.46.68-.05,1.38.09.69.04c.14.06.3.09.5.11.2.02.39-.01.58-.09l.2-.02.95-.47c.23-.35.43-.33.6.05.23.38.47.59.74.63l.89.03.69.04c.06-.07.14-.08.25-.02.1.06.25.08.45.06s.31.01.35.07c.04.06.12.02.24-.12l.47-.33.9-1.15,10.97-.55,11.05,6.82Zm-18.81,21.33v-12.69s-5.53.92-5.53.92l-5.9,3.8,4.34,10.29,7.1-2.32Z"/><path class="cls-1" d="m455.9,99.36l-.39.03c-.06,0-.12.11-.17.31-.05.2-.03.49.07.88.09.32.16.66.23,1.02s.11.6.15.73c.04.13.05.26.03.39-.02.13-.09.29-.21.46-.12.17-.25.36-.4.57-.15.21-.27.35-.36.42s-.13.17-.12.3.21.38.6.74c.39.36.59.58.59.64l.08,1.08-.4,1.21c.69.47,1.05.87,1.08,1.2l1.32,17.11-4.54-.14,4.76,3.07.21,2.74-5.95,7.05-9.19.71-5.57-2.13-4.99,2.94-14.68-.34-8.4-5.65-5.37-18.57,5.05-4.62-5.88,1.64-1.88-6.45,9.91-11.78,4.08-.61c.13.06.27.11.41.17.06,0,.1.03.11.09l.88-.07.94-.56.88-.07c.25-.15.48-.17.68-.05.14.05.33.07.59.05l1.08-.08c.13-.01.34.17.63.54l.27-.32.35-.52c.12-.14.24-.28.36-.42l11.75-1.99,5.27,3.33,6.65-4.25,9.09,4.31.38,4.89Zm-20.03,20.83l-.06-10.91-4.27-3.11-6.08,1.55-4.71,6.56,5.77,9.69,3.44-1.35-.59,3.78,3.35-4.98,3.15-1.23Z"/><path class="cls-1" d="m536.43,106.51l1.22,9.35-2.12,13.35-18.93-.6,1.69-15.08,7.3-4.89-6.88,1.32.75-6.85-2.97-5.38-5.99,1.45.17,18.78-2.21,13.35-18.74-.62,1.09-10.12,1.33-.6c.38-.16.61-.36.69-.59.08-.24.07-.53-.02-.88-.09-.35-.14-.56-.15-.63v-1.08s-.84-.92-.84-.92c-.09-.25-.05-.45.1-.6.15-.14.29-.32.4-.52.11-.21.17-.37.16-.5l-.02-.2-.18-2.35-.35-.76.15-1.88c.23-.35.41-.62.53-.83.18-.21.06-.43-.35-.66l.31-2.38-2.97-5.38-6.96,1.52.45,14.72-5.91-2.59,6.04,6.81.37,11.19-15.61,2.98-7.23-15.87.46-10.56.26-.51c.13-.07.12-.29,0-.64-.13-.35-.17-.69-.13-1.02.05-.13.13-.27.21-.41.09-.14.19-.24.32-.32.12-.08.24-.13.33-.17.1-.04.18-.06.24-.07l.2-.02-.32-4.11c-.07-.06-.16-.12-.26-.18-.1-.06-.23-.18-.37-.36-.15-.18-.21-.36-.19-.53.02-.16.15-.36.4-.57.24-.22.52-.47.83-.75.31-.29.51-.6.62-.93l-1.41-1.76-.14-1.76.16-4.34,6.62-6.02,11.5,3.64.02.29,8.38-2.32,7.25,4.75-4.07-5.59,7.13-1.93,4.99,3.45,19.79-4.87,10.52,6.27.56,4.68.17,2.15-.9,2.33c.43,1.35.5,2.19.2,2.54l-.44.63c-.57.24-.54.63.09,1.17l1.51,1.66.11,1.37c-.58.96-.53,1.65.16,2.05.21.18.52.42.94.71Z"/><path class="cls-1" d="m577.69,108.24l11.74,1.65.75,12.24-7.28,2.53c-.19.08-.54-.12-1.03-.61l-.99-.12-.73.74c-.51.24-.92.46-1.23.69l-1.76.14c-.48-.29-.82-.43-1.02-.41-.07,0-.24.31-.52.93l-.58.14-1.35.4-.39.03c-.14-.05-.26.05-.37.32-.11.27-.22.51-.34.71l-.07.4c-.05.14-.11.27-.16.41l-6.9,2.4-16.36-6.7-2.95-6.36,2.19-7.35-3.59,4.41-6.85-14.82,7.94-13.11,6.91-2.3h.1s.58-.15.58-.15l1.21.4c.4.1.63.05.68-.15l.36-.42.94-.56.71.24.74-.55.77-.16c.44-.23.7-.28.77-.16.21.12.4.07.58-.14,0-.06.04-.15.13-.26l.32-.37.36-.42,7.09-2.42,14.56,6.35,1.16,17.52-21.81,2.97,1.58,2.63-4.24,1.12,5.38.86,1.35,2.16,11.63-4.83Zm-18.14-14.53l-.34,4.55,15.1-1.95-2.45-3.75-5.87-2.1-6.44,3.25Z"/></g></svg>