<?xml version="1.0" encoding="UTF-8"?><svg id="Layer_2" xmlns="http://www.w3.org/2000/svg" xmlns:xlink="http://www.w3.org/1999/xlink" viewBox="0 0 461.35 192.16"><defs><style>.cls-1{fill:url(#linear-gradient);opacity:.42;}.cls-2{fill:#656665;}.cls-3{fill:#cccccb;}.cls-4{fill:#a4a2a2;opacity:.2;}.cls-5{fill:none;stroke:#8b8b8c;stroke-miterlimit:10;stroke-width:8px;}</style><linearGradient id="linear-gradient" x1="-4369.5" y1="156.74" x2="-4112.6" y2="156.74" gradientTransform="translate(-4104.1) rotate(-180) scale(1 -1)" gradientUnits="userSpaceOnUse"><stop offset="0" stop-color="#fff" stop-opacity="0"/><stop offset=".02" stop-color="#d3d3d3" stop-opacity=".3"/><stop offset=".04" stop-color="#afaeae" stop-opacity=".56"/><stop offset=".06" stop-color="#939292" stop-opacity=".75"/><stop offset=".08" stop-color="#7f7e7e" stop-opacity=".89"/><stop offset=".11" stop-color="#737272" stop-opacity=".97"/><stop offset=".15" stop-color="#706f6f"/></linearGradient></defs><g id="Layer_30"><path class="cls-2" d="m446.11,17.9h-148.34c-5.49,0-9.94,5.11-9.94,11.41l-28.75,121.3H42.47c-4.09-.14-7.19.03-9.48.36-2.6.38-5.02,1.74-6.92,3.83L1.99,181.46c-3.67,3.18-1.95,9.96,2.63,10.28.92.06,1.9.1,2.93.1,62.17.06,248.7.26,248.7.26,1.41,0,2.78-.03,4.08-.09.51.09,1.02.15,1.55.15h148.34c5.49,0,9.94-5.11,9.94-11.41l35.9-151.45c0-6.3-4.45-11.41-9.94-11.41Z"/><path class="cls-3" d="m447.5,4h-147.01c-5.44,0-9.85,5.11-9.85,11.41l-28.5,121.3H47.47c-4.05-.14-7.13.03-9.39.36-2.58.38-4.98,1.74-6.86,3.83l-23.87,26.66c-3.64,3.18-1.93,9.96,2.61,10.28.92.06,1.88.1,2.9.1,61.62.06,246.48.26,246.48.26,1.4,0,2.75-.03,4.04-.09.5.09,1.01.15,1.54.15h147.01c5.44,0,9.85-5.11,9.85-11.41L457.35,15.41c0-6.3-4.41-11.41-9.85-11.41Z"/><path class="cls-4" d="m6.97,168.29l23.87-26.66c1.88-2.1,4.28-3.46,6.86-3.83,2.26-.33,5.34-.5,9.39-.36h214.68l18.99-80.83,131.71,122.33c-.3.03-.61.05-.92.05h-147.01c-.52,0-1.03-.06-1.54-.15-1.29.06-2.65.09-4.04.09,0,0-184.86-.19-246.48-.26-1.02,0-1.98-.04-2.9-.1-4.54-.32-6.25-7.1-2.61-10.28Z"/><path class="cls-1" d="m10.38,165.5l17.01-24.82c1.59-1.81,4.55-1.69,7.5-1.81,1.93-.08,6.02-.08,9.44.04h35.83v-.04h185.24v35.79H80.15v-.15c-26.22-.03-50.03-.05-65.11-.07-.86,0-1.68-.13-2.45-.09-5.47.31-4.62-4.88-2.21-8.86Z"/><path class="cls-5" d="m447.5,4h-147.01c-5.44,0-9.85,5.11-9.85,11.41l-28.5,121.3H47.47c-4.05-.14-7.13.03-9.39.36-2.58.38-4.98,1.74-6.86,3.83l-23.87,26.66c-3.64,3.18-1.93,9.96,2.61,10.28.92.06,1.88.1,2.9.1,61.62.06,246.48.26,246.48.26,1.4,0,2.75-.03,4.04-.09.5.09,1.01.15,1.54.15h147.01c5.44,0,9.85-5.11,9.85-11.41L457.35,15.41c0-6.3-4.41-11.41-9.85-11.41Z"/></g></svg>