<?xml version="1.0" encoding="UTF-8"?><svg id="Layer_2" xmlns="http://www.w3.org/2000/svg" viewBox="0 0 569.95 245.41"><defs><style>.cls-1{fill:#fff;}.cls-2{fill:#656665;}.cls-3{fill:#cdcecd;}.cls-4{fill:none;stroke:#88898a;stroke-miterlimit:10;stroke-width:10px;}.cls-5{fill:#a1a09f;opacity:.2;}.cls-6{opacity:.17;}</style></defs><g id="Layer_30"><path class="cls-2" d="m22.58,209.41l525.69,36c9.2,0,16.66-8.1,16.66-18.09V90.78c0-9.99-7.46-18.09-16.66-18.09L21.66,31.69c-9.2,0-16.66,8.1-16.66,18.09l.92,141.54c0,9.99,7.46,18.09,16.66,18.09Z"/><path class="cls-3" d="m22.23,182.72l525.69,36c9.2,0,16.66-8.1,16.66-18.09V64.09c0-9.99-7.46-18.09-16.66-18.09L21.31,5C12.11,5,4.65,13.1,4.65,23.09l.92,141.54c0,9.99,7.46,18.09,16.66,18.09Z"/><path class="cls-5" d="m555.74,45.37l-175.34-13.68L107.88,188.36l434.47,30.17c9.1,1.44,17.59-5.6,18.95-15.73l8.46-136.48c1.36-10.13-4.91-19.51-14.02-20.95Z"/><path class="cls-4" d="m22.58,182.72l525.69,36c9.2,0,16.66-8.1,16.66-18.09V64.09c0-9.99-7.46-18.09-16.66-18.09L21.66,5C12.46,5,5,13.1,5,23.09l.92,141.54c0,9.99,7.46,18.09,16.66,18.09Z"/><g class="cls-6"><path d="m116.88,122.29l-.08,5.61-3.28,9.4-14.25,2.41-4.74-6.12.21-4.65,6.86-3.08-6.67.04.99-18.21-9.2,12.73-10.08-3.13-4.42-15.52-2.06,19.95-4.62.84,4.36,1.71-.89,7.84-6.71,5.18-14.67-5.71.61-13.76,6.3-3.21-6.13.65.11-3.23,2.32-9.37,1.72-1.51c.13-.05.16-.47.08-1.23-.04-.38,0-.71.11-.99.11-.28.15-.61.11-.99l.17-2.65.08.2.06-.95c0-1.08.05-1.81.14-2.18l1.45-6.19,5.31-15.74,13.46.87,3.26,5.54c1.45,3.01,2.16,4.84,2.12,5.47-.02.25-.08.49-.19.7-.11.22-.16.36-.17.42s.08.16.27.3l.64.42,1.62,1.44c-.29.55-.31.84-.06.85l1.52.1,3.18,5.25,11.2-14.22,7.89-4.25,12.56,10.34-.14,7.99-8.42,2.12,8.41,1.02-.23,15.22-1.15,1.54-.6,1.96-.08,1.23c.21.71.32,1.42.34,2.12.04.26.03.46-.04.62-.07.15-.16.34-.27.55-.11.22-.21.48-.29.79-.1.56-.02.82.24.78l.2-.08c.99,1.4,1.5,2.32,1.53,2.76Z"/><path d="m173.12,106.42l-.38-.02c-.06,0-.13.09-.21.27-.08.18-.1.47-.06.85.04.32.07.66.08,1.01,0,.35.02.59.05.72.02.13.01.26-.02.38-.04.12-.13.26-.26.41-.14.15-.29.31-.46.49-.17.18-.31.3-.4.35-.1.06-.15.15-.16.28s.15.39.47.79c.32.4.48.64.48.7l-.07,1.04-.55,1.11c.6.55.89.98.87,1.29l-1.08,16.59-4.33-.76,4.15,3.6-.17,2.65-6.67,5.95-8.91-.58-5.05-2.8-5.18,2.14-14.03-2.34-7.29-6.57-2.6-18.54,5.48-3.74-5.86.76-.91-6.44,11.12-9.94,4-.03c.12.07.24.14.37.21.06,0,.09.04.09.1l.85.06.98-.41.85.06c.26-.11.48-.09.66.04.12.07.31.12.56.13l1.04.07c.13,0,.3.21.53.61l.3-.27.41-.45c.13-.12.27-.24.4-.35l11.54-.3,4.6,3.92,6.96-3.16,8.12,5.38-.31,4.74Zm-22.06,17.23l1.44-10.47-3.67-3.57-6.04.66-5.41,5.65,4.2,10.08,3.48-.82-1.09,3.55,3.9-4.32,3.19-.75Z"/><path d="m200.6,111.35l-2.02,13.48-4.93-1.75,4.55,4.67-1.97,12.72-7.2,5.34-8.96-1.34-6.39-4.22,1.06-4.6,5.44-1.74-4.9-.79,2.69-12.11c.41-.48.83-1.02,1.25-1.63l.43-.73c-.27.17-.39.1-.37-.21l.98-1.94c-.16-.45-.29-.97-.38-1.55l1.2-.87-.56-.13c-.31-.08-.22-.52.28-1.32l.05-.76-.72-.62,1.88-8.45,11.78-4.09,1.53,2.86-.74,1.19.53.61c.21-.37.4-.32.56.13l.69,1.19-.19,1.42c1.36.6,2.09.96,2.21,1.09,0,.06-.06.12-.15.18-.1.06-.2.12-.3.17-.1.06-.15.15-.16.27l.29,1.45.75.14.42-.54,1.36,2.47Zm-16.73-25.36c-.12-.07-.25-.14-.37-.21l-.72-2.14,7.85-3.68,7.6.21,1.53,2.86-5.06,3.19,6.16-1.03,1.27,2.37-2.8,7.91-12.23.73-1.19-3.6-.08-.2c.22-.43.36-.7.43-.83.22-.43.06-.98-.46-1.65-.31-.21-.36-.37-.16-.49.2-.11.3-.27.32-.46l.17-1.13-.57-.04-.89-.92c-.12-.2-.25-.38-.39-.55-.15-.17-.28-.29-.41-.36Z"/><path d="m251.88,123.53l.03,6.86-5.19,16.89-18.03-2.31,2.37-11.56c.01-.19.15-.35.41-.5.26-.14.43-.27.5-.4.07-.12.11-.28.13-.47s0-.35-.06-.48l-.08-.2.9-.61.82-.9-1.63-1.34,1.2-.87-.04-.86-.53-.61c-.05-.26.23-1.16.84-2.71.38-.99.32-1.44-.2-1.35l.38-1.5-2.4-5.49-6.81.79-.88,14.98-4.36-1.71,4.15,5.03-.71,10.9-15.33,1.48-1.29-3.61-.24-.68.26-1.12.08-1.23-.04-.86-.52-.8-.54-.42-1.17-1.12-.24-.78-1.84-5.36,1.3-9.72.72-.81c.07-.06.14-.15.21-.27.07-.12.18-.35.33-.69.15-.34.2-.64.15-.89l.02-1.71.03-.47c.07-.12.33-.65.77-1.57.07-.12.05-.24-.07-.34-.12-.1-.27-.19-.46-.27h-.19s.02-1.82.02-1.82l.72-.81.07-1.14.04-2.09-.54-.51.59-4.72,6.91-5.26,10.84,4.61v.19s5.96-1.04,5.96-1.04l5.58,3.5-2.5-4.06,9.34-1.58,9.92,8.45.19,13.15-4.16-1.89,4.27,4.66Z"/><path d="m361.31,131.59l-.12,9.13-3.86,12.51-18.07-3.17,3.68-14.23,7.67-3.69-6.78.32,1.66-6.46-2.11-5.56-5.94.57-2.41,18.03-3.95,12.5-17.88-3.16,2.43-9.55,1.36-.39c.39-.1.64-.26.75-.48.11-.22.14-.5.1-.85-.04-.35-.06-.56-.05-.62l.16-1.04-.7-1c-.05-.26.01-.44.18-.56.17-.12.32-.27.46-.45.14-.18.21-.33.22-.46v-.19s.16-2.28.16-2.28l-.23-.78.4-1.78c.27-.3.48-.54.62-.72.2-.18.12-.4-.24-.68l.62-2.24-2.11-5.56-6.89.5-1.59,14.18-5.31-3.3,4.85,7.36-1.18,10.78-15.37.72-4.76-16.21,1.89-10.06.32-.46c.13-.05.16-.26.09-.61-.07-.35-.07-.69.02-1,.07-.12.16-.24.26-.36.1-.12.22-.21.35-.26.13-.05.24-.09.34-.12.1-.03.18-.04.24-.03h.19s.26-3.97.26-3.97c-.06-.07-.13-.13-.22-.2-.09-.07-.19-.2-.31-.4-.12-.2-.15-.37-.11-.53.04-.16.2-.32.46-.49.26-.17.56-.38.9-.61.33-.23.57-.5.72-.81l-1.12-1.88.11-1.71.75-4.14,7.17-4.87,10.52,5.06-.02.28,8.35-1.08,6.3,5.55-3.14-5.92,7.1-.87,4.31,3.99,19.64-1.96,9.23,7.45-.11,4.56-.14,2.09-1.18,2.11c.23,1.35.18,2.17-.16,2.46l-.51.54c-.58.15-.61.53-.07,1.14l1.22,1.79-.09,1.33c-.69.84-.73,1.51-.13,1.99.18.2.44.47.8.81Z"/><path d="m400.63,138.9l11.03,3.19-.96,11.84-7.33,1.43c-.19.05-.5-.19-.91-.73l-.94-.25-.8.61c-.52.16-.94.32-1.27.49l-1.71-.11c-.42-.34-.73-.52-.92-.54-.06,0-.27.27-.62.82l-.58.06-1.35.2-.38-.02c-.12-.07-.26.02-.4.26-.14.25-.28.46-.42.64l-.12.37c-.07.12-.14.25-.21.37l-6.94,1.36-14.76-8.67-1.96-6.51,3.1-6.75-4.05,3.74-4.54-15.15,9.41-11.48,6.94-1.26h.09s.58-.05.58-.05l1.11.55c.37.15.59.13.67-.05l.4-.35.98-.41.65.33.79-.42.76-.05c.45-.16.71-.18.77-.05.18.14.37.12.57-.06,0-.06.06-.14.16-.23s.22-.19.35-.31c.13-.12.27-.24.4-.36l7.13-1.35,13.09,8.08-1.29,16.96-21.32-.15,1.15,2.74-4.22.49,5.04,1.57,1,2.25,11.81-3.04Zm-15.4-16.42l-.95,4.32,14.74.19-1.84-3.93-5.34-2.82-6.62,2.24Z"/><path d="m524.57,132.33l-1.6,8.47-.76,1.38c.12.13.2.3.25.49.05.19.07.39.06.58l-.45,1.02c.1.39-.15.85-.76,1.38-.41.48-.43.73-.05.76.36.28.35.53-.05.76-.2.11-.32.23-.36.36-.04.12-.05.23-.02.33.03.1.06.26.11.48.05.23.1.47.14.72-.34.36-.67.56-.99.6-.13.06-.2.15-.21.27s.01.26.07.39l.08.2-.73.9c.4.73.58,1.31.55,1.75l-.1,1.52c.12.14.3.3.54.51l-.88,4.8-7.09,3.63-10.6-3.93v-.19s-18.61,2.31-18.61,2.31l-9.51-9,.3-7.5,8.83-1.14-8.76-1.43.44-12.73,6.12-16.55,17.88,3.25-1.13,4.21v.09s-.28,1.22-.28,1.22l-.11.18v.09s-.02.19-.02.19c-.91.32-1.47.67-1.69,1.03,0,.06-.03.16-.07.28-.04.12-.06.25-.07.38l-.03.43c-.01.16,0,.32.02.48.02.16.03.29.02.38l-.02.24v.09c-.28.36-.53.7-.74,1,0,.06-.03.2-.07.42-.05.22-.08.47-.1.76s-.02.54,0,.76c.02.22.02.43,0,.62l-.02.28-.15.85-.11,1.71c-.1.63-.14,1.1-.09,1.42.05.19.03.48-.06.85l-1.53,5.99,2.11,5.66,6.79-.51,3.31-29.01,15.38-.81,1.56,5.34c-.64,1.1-1.44,2.35-2.39,3.75-.95,1.4-1.73,2.49-2.35,3.27l-.93,1.18,6.44-5.39,2.42,8.15Z"/><path d="m469.03,135.55l.03,6.86-5.19,16.89-18.03-2.31,2.37-11.56c.01-.19.15-.35.41-.5.26-.14.43-.27.5-.4.07-.12.11-.28.13-.47s0-.35-.06-.48l-.08-.2.9-.61.82-.9-1.63-1.34,1.2-.87-.04-.86-.53-.61c-.05-.26.23-1.16.84-2.71.38-.99.32-1.44-.2-1.35l.38-1.5-2.4-5.49-6.81.79-.88,14.98-4.36-1.71,4.15,5.03-.71,10.9-15.33,1.48-1.29-3.61-.24-.68.26-1.12.08-1.23-.04-.86-.52-.8-.54-.42-1.17-1.12-.24-.78-1.84-5.36,1.3-9.72.72-.81c.07-.06.14-.15.21-.27.07-.12.18-.35.33-.69.15-.34.2-.64.15-.89l.02-1.71.03-.47c.07-.12.33-.65.77-1.57.07-.12.05-.24-.07-.34-.12-.1-.27-.19-.46-.27h-.19s.02-1.82.02-1.82l.72-.81.07-1.14.04-2.09-.54-.51.59-4.72,6.91-5.26,10.84,4.61v.19s5.96-1.04,5.96-1.04l5.58,3.5-2.5-4.06,9.34-1.58,9.92,8.45.19,13.15-4.16-1.89,4.27,4.66Z"/></g><path class="cls-1" d="m126.49,118.4l-.08,5.61-3.28,9.4-14.25,2.41-4.74-6.12.21-4.65,6.86-3.08-6.67.04.99-18.21-9.2,12.73-10.08-3.13-4.42-15.52-2.06,19.95-4.62.84,4.36,1.71-.89,7.84-6.71,5.18-14.67-5.71.61-13.76,6.3-3.21-6.13.65.11-3.23,2.32-9.37,1.72-1.51c.13-.05.16-.47.08-1.23-.04-.38,0-.71.11-.99s.15-.61.11-.99l.17-2.65.08.2.06-.95c0-1.08.05-1.81.14-2.18l1.45-6.19,5.31-15.74,13.46.87,3.26,5.54c1.45,3.01,2.16,4.84,2.12,5.47-.02.25-.08.49-.19.7-.11.22-.16.36-.17.42,0,.06.08.17.27.3l.64.42,1.62,1.44c-.29.55-.31.84-.06.85l1.52.1,3.18,5.25,11.2-14.22,7.89-4.25,12.56,10.34-.14,7.99-8.42,2.12,8.41,1.02-.23,15.22-1.15,1.54-.6,1.96-.08,1.23c.21.71.32,1.42.34,2.12.04.26.03.46-.04.62-.07.16-.16.34-.27.55-.11.22-.21.48-.29.79-.1.56-.02.82.24.78l.2-.08c.99,1.4,1.5,2.32,1.53,2.77Z"/><path class="cls-1" d="m182.73,102.54l-.38-.02c-.06,0-.13.09-.21.27-.08.18-.1.47-.06.85.04.32.07.66.08,1.01,0,.35.02.59.05.72.02.13.01.26-.02.38-.04.12-.13.26-.26.41-.14.15-.29.32-.46.49-.17.18-.31.3-.4.35-.1.06-.15.15-.16.28s.15.39.47.79c.32.4.48.63.48.7l-.07,1.04-.55,1.11c.6.55.89.98.87,1.29l-1.08,16.59-4.33-.76,4.15,3.6-.17,2.65-6.67,5.95-8.91-.58-5.05-2.8-5.18,2.14-14.03-2.34-7.29-6.57-2.6-18.54,5.48-3.74-5.86.76-.91-6.44,11.12-9.94,4-.03c.12.07.24.14.37.21.06,0,.09.04.09.1l.85.06.98-.41.85.06c.26-.11.48-.09.66.04.12.07.31.12.56.13l1.04.07c.13,0,.3.21.53.61l.3-.27.41-.45c.13-.12.27-.24.4-.36l11.54-.3,4.6,3.92,6.96-3.16,8.12,5.38-.31,4.74Zm-22.06,17.23l1.44-10.47-3.67-3.57-6.04.66-5.41,5.65,4.2,10.08,3.48-.82-1.09,3.55,3.9-4.32,3.19-.75Z"/><path class="cls-1" d="m210.21,107.46l-2.02,13.48-4.93-1.75,4.55,4.67-1.97,12.73-7.2,5.34-8.96-1.34-6.39-4.22,1.06-4.6,5.44-1.74-4.9-.8,2.69-12.11c.41-.48.83-1.02,1.25-1.63l.43-.73c-.27.17-.39.1-.37-.21l.98-1.94c-.16-.45-.29-.97-.38-1.55l1.2-.87-.56-.13c-.31-.08-.22-.52.28-1.32l.05-.76-.72-.62,1.88-8.44,11.78-4.09,1.53,2.86-.74,1.19.53.61c.21-.37.4-.32.56.13l.69,1.19-.19,1.42c1.36.6,2.09.96,2.21,1.09,0,.06-.06.12-.15.18-.1.06-.2.12-.3.17-.1.06-.15.15-.16.27l.29,1.45.75.14.42-.54,1.36,2.47Zm-16.73-25.36c-.12-.07-.25-.14-.37-.22l-.72-2.14,7.85-3.68,7.6.21,1.53,2.86-5.06,3.19,6.16-1.03,1.27,2.37-2.8,7.91-12.23.73-1.19-3.6-.08-.2c.22-.43.36-.7.43-.83.22-.43.06-.98-.46-1.65-.31-.21-.36-.37-.16-.49.2-.11.3-.27.32-.46l.17-1.13-.57-.04-.89-.92c-.12-.2-.25-.38-.39-.55-.15-.17-.28-.29-.41-.36Z"/><path class="cls-1" d="m261.5,119.64l.03,6.86-5.19,16.89-18.03-2.31,2.37-11.56c.01-.19.15-.35.41-.5.26-.14.43-.27.5-.39.07-.12.11-.28.13-.47s0-.35-.06-.48l-.08-.2.9-.61.82-.9-1.63-1.34,1.2-.88-.04-.86-.53-.6c-.05-.26.23-1.16.84-2.71.38-.99.32-1.44-.2-1.35l.38-1.5-2.4-5.49-6.81.79-.88,14.98-4.36-1.71,4.15,5.03-.71,10.9-15.33,1.48-1.29-3.61-.24-.68.26-1.13.08-1.23-.04-.86-.52-.8-.54-.41-1.16-1.12-.24-.78-1.84-5.36,1.3-9.72.72-.81c.07-.06.14-.15.21-.27.07-.12.18-.35.33-.69.15-.34.2-.64.15-.89l.02-1.71.03-.47c.07-.12.33-.65.77-1.57.07-.12.05-.24-.07-.34-.12-.1-.27-.19-.46-.27h-.19s.02-1.82.02-1.82l.72-.81.07-1.14.04-2.09-.54-.51.59-4.72,6.91-5.26,10.84,4.61v.19s5.96-1.04,5.96-1.04l5.58,3.5-2.5-4.06,9.34-1.58,9.92,8.45.19,13.15-4.16-1.89,4.27,4.66Z"/><path class="cls-1" d="m370.93,127.7l-.12,9.13-3.86,12.51-18.07-3.17,3.68-14.23,7.67-3.69-6.78.32,1.66-6.46-2.11-5.56-5.94.57-2.41,18.03-3.95,12.5-17.88-3.16,2.43-9.55,1.36-.39c.39-.1.64-.26.75-.47.11-.22.14-.5.1-.85-.04-.35-.06-.56-.05-.62l.16-1.04-.7-1c-.05-.26.01-.44.18-.56.16-.11.32-.27.46-.45.14-.18.21-.33.22-.46v-.19s.16-2.28.16-2.28l-.23-.78.4-1.78c.27-.3.48-.54.62-.72.2-.18.12-.41-.24-.68l.62-2.24-2.11-5.56-6.89.5-1.59,14.18-5.31-3.3,4.85,7.36-1.18,10.77-15.37.72-4.76-16.21,1.89-10.06.32-.46c.13-.05.16-.26.09-.61-.07-.35-.07-.69.02-1,.07-.12.16-.24.26-.36.1-.12.22-.21.35-.26.13-.05.24-.09.34-.12.1-.03.18-.04.24-.03h.19s.26-3.97.26-3.97c-.06-.07-.13-.14-.22-.2-.09-.07-.19-.2-.31-.4-.12-.2-.15-.37-.11-.53.04-.16.2-.32.46-.49.26-.17.56-.37.9-.61.33-.23.57-.5.72-.81l-1.12-1.88.11-1.71.75-4.14,7.17-4.87,10.52,5.06-.02.28,8.35-1.07,6.3,5.55-3.14-5.91,7.1-.87,4.31,3.99,19.64-1.96,9.23,7.45-.11,4.56-.14,2.09-1.18,2.11c.23,1.35.18,2.17-.16,2.46l-.51.54c-.58.15-.61.53-.07,1.14l1.22,1.79-.09,1.33c-.69.85-.73,1.51-.13,1.99.18.2.44.47.8.81Z"/><path class="cls-1" d="m410.25,135.01l11.03,3.19-.96,11.84-7.33,1.43c-.19.05-.5-.19-.91-.72l-.94-.25-.8.62c-.52.16-.94.32-1.27.49l-1.71-.11c-.42-.34-.73-.52-.92-.54-.06,0-.27.27-.62.81l-.58.06-1.35.2-.38-.02c-.12-.07-.26.02-.4.26-.14.25-.28.46-.42.64l-.12.37-.21.37-6.94,1.36-14.76-8.67-1.96-6.51,3.1-6.75-4.05,3.74-4.54-15.15,9.41-11.48,6.94-1.26h.09s.58-.05.58-.05l1.11.55c.37.15.59.13.67-.05l.4-.35.98-.41.65.33.79-.42.76-.04c.45-.16.71-.18.77-.05.18.14.37.12.57-.06,0-.06.06-.14.16-.23.1-.09.22-.19.35-.31.13-.12.27-.24.4-.36l7.13-1.35,13.09,8.08-1.29,16.96-21.32-.15,1.15,2.74-4.22.49,5.04,1.57,1,2.25,11.81-3.04Zm-15.4-16.42l-.95,4.32,14.74.19-1.84-3.93-5.34-2.82-6.62,2.24Z"/><path class="cls-1" d="m531.8,128.22l-1.6,8.47-.76,1.38c.12.13.2.3.25.49.05.19.07.38.06.58l-.45,1.02c.1.39-.15.85-.76,1.38-.41.48-.43.73-.05.76.36.28.35.53-.05.76-.2.11-.32.23-.36.36-.04.12-.05.24-.02.33.02.1.06.26.11.48.05.23.1.47.14.72-.34.36-.67.56-.99.6-.13.06-.2.15-.21.27s.01.26.07.38l.08.2-.73.9c.4.72.58,1.31.55,1.75l-.1,1.52c.12.13.3.3.54.51l-.88,4.8-7.09,3.63-10.6-3.93v-.19s-18.61,2.31-18.61,2.31l-9.51-9,.3-7.5,8.83-1.14-8.76-1.42.44-12.73,6.12-16.55,17.88,3.25-1.13,4.21v.09s-.28,1.22-.28,1.22l-.11.18v.1s-.02.19-.02.19c-.91.32-1.47.67-1.69,1.03,0,.06-.03.16-.07.28-.04.12-.06.25-.07.38l-.03.43c-.01.16,0,.32.02.48.02.16.03.29.02.38l-.02.24v.1c-.28.36-.53.7-.74,1,0,.06-.03.21-.07.42-.05.22-.08.47-.1.76s-.02.54,0,.76c.02.22.02.43,0,.62l-.02.28-.15.85-.11,1.71c-.1.63-.14,1.1-.09,1.42.05.19.03.48-.06.85l-1.53,5.99,2.11,5.66,6.79-.51,3.31-29.01,15.38-.81,1.56,5.34c-.64,1.1-1.44,2.35-2.39,3.75-.95,1.4-1.73,2.49-2.35,3.27l-.93,1.18,6.44-5.39,2.42,8.15Z"/><path class="cls-1" d="m475.99,131.67l.03,6.86-5.19,16.89-18.03-2.31,2.37-11.56c.01-.19.15-.35.41-.5.26-.14.43-.27.5-.39.07-.12.11-.28.13-.47s0-.35-.06-.48l-.08-.2.9-.61.82-.9-1.63-1.34,1.2-.88-.04-.86-.53-.6c-.05-.26.23-1.16.84-2.71.38-.99.32-1.44-.2-1.35l.38-1.5-2.4-5.49-6.81.79-.88,14.98-4.36-1.71,4.15,5.03-.71,10.9-15.33,1.48-1.29-3.61-.24-.68.26-1.13.08-1.23-.04-.86-.52-.8-.54-.41-1.16-1.12-.24-.78-1.84-5.36,1.3-9.72.72-.81c.07-.06.14-.15.21-.27.07-.12.18-.35.33-.69.15-.34.2-.64.15-.89l.02-1.71.03-.47c.07-.12.33-.65.77-1.57.07-.12.05-.24-.07-.34-.12-.1-.27-.19-.46-.27h-.19s.02-1.82.02-1.82l.72-.81.07-1.14.04-2.09-.54-.51.59-4.72,6.91-5.26,10.84,4.61v.19s5.96-1.04,5.96-1.04l5.58,3.5-2.5-4.06,9.34-1.58,9.92,8.45.19,13.15-4.16-1.89,4.27,4.66Z"/></g></svg>