<?xml version="1.0" encoding="UTF-8"?><svg id="Layer_2" xmlns="http://www.w3.org/2000/svg" viewBox="0 0 569.95 245.41"><defs><style>.cls-1{fill:#fff;}.cls-2{fill:#656665;}.cls-3{fill:#cdcecd;}.cls-4{fill:none;stroke:#88898a;stroke-miterlimit:10;stroke-width:10px;}.cls-5{fill:#a1a09f;opacity:.2;}.cls-6{opacity:.17;}</style></defs><g id="Layer_30"><path class="cls-2" d="m22.58,209.41l525.69,36c9.2,0,16.66-8.1,16.66-18.09V90.78c0-9.99-7.46-18.09-16.66-18.09L21.66,31.69c-9.2,0-16.66,8.1-16.66,18.09l.92,141.54c0,9.99,7.46,18.09,16.66,18.09Z"/><path class="cls-3" d="m22.23,182.72l525.69,36c9.2,0,16.66-8.1,16.66-18.09V64.09c0-9.99-7.46-18.09-16.66-18.09L21.31,5C12.11,5,4.65,13.1,4.65,23.09l.92,141.54c0,9.99,7.46,18.09,16.66,18.09Z"/><path class="cls-5" d="m555.74,45.37l-175.34-13.68L107.88,188.36l434.47,30.17c9.1,1.44,17.59-5.6,18.95-15.73l8.46-136.48c1.36-10.13-4.91-19.51-14.02-20.95Z"/><path class="cls-4" d="m22.58,182.72l525.69,36c9.2,0,16.66-8.1,16.66-18.09V64.09c0-9.99-7.46-18.09-16.66-18.09L21.66,5C12.46,5,5,13.1,5,23.09l.92,141.54c0,9.99,7.46,18.09,16.66,18.09Z"/><g class="cls-6"><path d="m187.84,118.6l.06,5.61-3.04,9.48-14.18,2.75-4.89-6,.09-4.66,6.79-3.24-6.66.21.55-18.23-8.89,12.95-10.15-2.88-4.8-15.41-1.57,20-4.6.95,4.4,1.6-.7,7.86-6.59,5.34-14.81-5.35.27-13.78,6.22-3.36-6.12.8.04-3.23,2.09-9.42,1.68-1.55c.13-.06.15-.47.05-1.23-.05-.38-.02-.71.09-1,.11-.28.14-.61.09-.99l.11-2.66.09.19.04-.95c-.02-1.08,0-1.81.09-2.18l1.3-6.22,4.92-15.87,13.48.54,3.39,5.46c1.53,2.98,2.28,4.78,2.25,5.42-.01.25-.07.49-.17.71-.1.22-.16.36-.16.42s.09.16.27.3l.65.41,1.65,1.4c-.28.56-.29.84-.03.85l1.52.06,3.31,5.17,10.85-14.49,7.79-4.44,12.81,10.03.06,7.99-8.37,2.32,8.43.82.15,15.22-1.11,1.57-.56,1.97-.05,1.23c.22.71.35,1.41.39,2.11.05.26.04.46-.02.62-.07.16-.16.34-.26.56-.1.22-.19.48-.27.8-.09.57,0,.82.25.77l.19-.09c1.02,1.37,1.55,2.28,1.6,2.73Z"/><path d="m243.68,101.36l-.38-.02c-.06,0-.13.09-.2.28-.07.19-.08.47-.03.85.05.32.08.65.1,1,.02.35.04.59.07.72.03.13.02.25-.02.38-.04.13-.12.26-.25.42-.13.15-.28.32-.45.5-.17.18-.3.31-.39.36-.1.06-.15.15-.15.28s.16.39.49.78c.33.39.5.62.5.68l-.04,1.05-.52,1.12c.61.53.91.96.9,1.27l-.67,16.61-4.35-.65,4.23,3.5-.11,2.66-6.52,6.11-8.92-.36-5.12-2.68-5.13,2.27-14.09-2-7.44-6.39-3.06-18.47,5.39-3.87-5.84.91-1.07-6.41,10.87-10.21,4-.12c.12.07.25.14.37.2.06,0,.09.04.09.1l.85.03.97-.44.85.03c.26-.12.48-.11.66.03.12.07.31.11.57.12l1.04.04c.13,0,.31.2.55.59l.3-.27.4-.46c.13-.12.26-.24.39-.36l11.53-.58,4.7,3.8,6.88-3.33,8.25,5.18-.19,4.75Zm-21.63,17.76l1.18-10.51-3.76-3.48-6.02.8-5.27,5.78,4.45,9.97,3.46-.91-1,3.57,3.79-4.41,3.17-.82Z"/><path d="m284.33,95.4l9.35,11.03-1.21,6.51-.48-.02-.05,1.14-.52,1.12-.95-.04.44.78-1.44,2.7,1.11.81-.54,1.59-.03.66c0,.06.1.27.31.63.21.36.31.63.3.82-.07.19-.11.31-.11.38l-1.21,6.51-6.54,6.49-10.7,3.66-7.87-2.89.41,11.14-4.44,6.29-11.22,4.78-4.3-6.54,1.43-16.49,4.85-7.22-4.49,2.86,1.26-14.59c.13-.12.23-.24.3-.37.07-.19.08-.36.02-.52-.06-.16-.05-.27.01-.33l.02-.43c0-.22.05-.47.13-.76.07-.28.18-.58.32-.89l.06-1.42c.35-.75.56-1.21.63-1.4.14-.25-.04-.54-.54-.88-.12-.07-.18-.18-.18-.34s.04-.3.11-.42l.1-.19c.21-.43.61-.99,1.21-1.66.59-.61.45-.9-.44-.87l-.05-1.14c.08-.38.09-.69.04-.95,0-.06-.21-.26-.64-.6l.53-5.97,8.61-6.02,2.48,2.29,2.84-2.07,10.49,1.47,5.43,6.87-2.31-6.46,7.47.97Zm-9.87,27.74l2.06-8.66-4.5-6.17-5.65-1.27-.99.91-.12,2.85-.97.53-.09,2.28-.7.83.61,1.26.41,1.73-.02.47c-.07.13-.14.23-.2.33-.07.09-.1.23-.11.42s.24.2.76.03l-.12,2.85,9.63,1.62Zm16.17-.11v-.09s0,.09,0,.09Z"/><path d="m332.93,97.36l9.35,11.03-1.21,6.51-.48-.02-.05,1.14-.52,1.12-.95-.04.44.78-1.44,2.7,1.11.81-.54,1.59-.03.66c0,.06.1.27.31.63.21.36.31.63.3.82-.07.19-.11.31-.11.38l-1.21,6.51-6.54,6.49-10.7,3.66-7.87-2.89.41,11.14-4.44,6.29-11.22,4.78-4.3-6.54,1.43-16.49,4.85-7.22-4.49,2.86,1.26-14.59c.13-.12.23-.24.3-.37.07-.19.08-.36.02-.52-.06-.16-.05-.27.01-.33l.02-.43c0-.22.05-.47.13-.76.07-.28.18-.58.32-.89l.06-1.42c.35-.75.56-1.21.63-1.4.14-.25-.04-.54-.54-.88-.12-.07-.18-.18-.18-.34s.04-.3.11-.42l.1-.19c.21-.43.61-.99,1.21-1.66.59-.61.45-.9-.44-.87l-.05-1.14c.08-.38.09-.69.04-.95,0-.06-.21-.26-.64-.6l.53-5.97,8.61-6.02,2.48,2.29,2.84-2.07,10.49,1.47,5.43,6.87-2.31-6.46,7.47.97Zm-9.87,27.74l2.06-8.66-4.5-6.17-5.65-1.27-.99.91-.12,2.85-.97.53-.09,2.28-.7.83.61,1.26.41,1.73-.02.47c-.07.13-.14.23-.2.33-.07.09-.1.23-.11.42s.24.2.76.03l-.12,2.85,9.63,1.62Zm16.17-.11v-.09s0,.09,0,.09Z"/><path d="m367.24,109.49l-1.69,13.53-4.97-1.63,4.66,4.56-1.66,12.77-7.07,5.51-8.99-1.12-6.49-4.07.95-4.62,5.4-1.87-4.92-.67,2.39-12.17c.4-.49.8-1.04,1.21-1.66l.41-.74c-.26.18-.38.11-.37-.21l.94-1.96c-.17-.45-.31-.96-.41-1.54l1.18-.9-.57-.12c-.31-.08-.23-.52.24-1.32l.03-.76-.74-.6,1.67-8.49,11.68-4.38,1.6,2.82-.71,1.21.55.59c.2-.37.39-.33.57.12l.71,1.17-.15,1.42c1.37.56,2.12.91,2.24,1.04,0,.06-.05.13-.15.18-.1.06-.19.12-.29.18-.1.06-.15.15-.15.28l.32,1.44.76.13.4-.55,1.42,2.43Zm-17.34-24.95c-.12-.07-.25-.14-.37-.21l-.77-2.12,7.76-3.87,7.6.02,1.6,2.82-4.98,3.32,6.13-1.18,1.33,2.34-2.6,7.98-12.21,1.03-1.28-3.57-.09-.19c.21-.43.35-.71.41-.84.21-.43.04-.98-.5-1.64-.31-.2-.37-.36-.17-.48.2-.12.3-.27.3-.46l.14-1.13-.57-.02-.91-.89c-.12-.19-.26-.37-.41-.54-.15-.16-.29-.28-.41-.35Z"/><path d="m418.81,120.42l.2,6.85-4.78,17.02-18.08-1.87,2.09-11.61c0-.19.14-.36.4-.51.26-.15.42-.28.49-.41.07-.12.11-.28.11-.47s-.02-.35-.08-.48l-.09-.19.88-.63.8-.92-1.66-1.3,1.18-.9-.06-.86-.55-.59c-.05-.26.2-1.16.77-2.73.36-1,.28-1.45-.23-1.34l.35-1.51-2.54-5.43-6.79.96-.51,15-4.4-1.6,4.27,4.93-.44,10.92-15.29,1.86-1.38-3.57-.26-.68.24-1.13.05-1.23-.06-.86-.54-.78-.55-.4-1.19-1.09-.25-.77-1.97-5.31,1.06-9.75.7-.83c.06-.06.13-.15.2-.28.07-.12.17-.36.31-.7.14-.34.18-.64.13-.9l-.03-1.71.02-.48c.07-.12.31-.65.73-1.59.07-.12.04-.24-.08-.34-.12-.1-.28-.19-.47-.26h-.19s-.02-1.81-.02-1.81l.7-.83.05-1.14v-2.09s-.56-.5-.56-.5l.48-4.73,6.78-5.43,10.95,4.34v.19s5.94-1.19,5.94-1.19l5.66,3.37-2.6-4,9.3-1.81,10.13,8.21.51,13.14-4.21-1.79,4.38,4.55Z"/><path d="m468.3,109.68l-1.3,8.69-5.23,4.64,4.68-.48-1.85,12.76-2.36,6.66c-.9.22-1.38.42-1.45.61l-.15,1.42c0,.13-.19.31-.55.55-.36.24-.7.48-1.03.72l-.58.26.72.89-.17,1.8-.42.93.92.8-.64,1.78-.65-.31c-.19.05-.24.31-.13.76.04.44,0,.73-.13.85-.13.12-.17.28-.11.47.06.06.11.08.14.05.03-.03.05-.11.06-.24-.02.38-.1.91-.26,1.61l-2.38,7.03-14.58,5.5-5.84-1.38-1.32-.34-.15-.96c-.11-.51-.33-.52-.66-.03l-.67.07-.46-.3-1.5-.63-.66-.22-1.16.43c-.5-.21-.84-.41-1.02-.61l-.66-.12-.79.63-2.63-.68-7.42-9.33,12.01-5.41,13.22,2.15,3.55-5.56-7.66,1.31-9.66-5.52-5.12-7.53.05-5.89,4.05-6.21-4.06,1.55.07-13.5,11.01-9.06,3.79.25.36.49.66.03,1.32.24.66.12c.12.07.28.12.47.16.19.04.38.03.57-.02h.19s.96-.33.96-.33c.26-.31.45-.27.57.12.17.39.39.62.64.69l.85.13.66.12c.06-.06.14-.06.24,0,.09.07.23.1.42.11s.3.04.33.11c.03.07.11.04.24-.09l.49-.27.99-1.01,10.62.71,9.86,7.81Zm-20.52,18.38l1.44-12.21-5.43.26-6.11,2.99,3,10.39,7.09-1.42Z"/></g><path class="cls-1" d="m193.05,113.61l.06,5.61-3.04,9.48-14.18,2.75-4.89-6,.09-4.66,6.79-3.24-6.66.21.55-18.23-8.89,12.95-10.15-2.88-4.8-15.41-1.57,20-4.6.95,4.4,1.6-.7,7.86-6.59,5.34-14.81-5.35.27-13.78,6.22-3.36-6.12.8.04-3.23,2.09-9.42,1.68-1.55c.13-.06.15-.47.05-1.23-.05-.38-.02-.71.09-1,.11-.28.14-.61.09-.99l.11-2.66.09.19.04-.95c-.02-1.08,0-1.81.09-2.18l1.3-6.22,4.92-15.87,13.48.54,3.39,5.46c1.53,2.98,2.28,4.78,2.25,5.42-.01.25-.07.49-.17.71-.1.22-.16.36-.16.42s.09.16.27.3l.65.41,1.65,1.4c-.28.56-.29.84-.03.85l1.52.06,3.31,5.17,10.85-14.49,7.79-4.44,12.81,10.03.06,7.99-8.37,2.32,8.43.82.15,15.22-1.11,1.57-.56,1.97-.05,1.23c.22.71.35,1.41.39,2.11.05.26.04.46-.02.62-.07.16-.16.34-.26.56-.1.22-.19.48-.27.8-.09.57,0,.82.25.77l.19-.09c1.02,1.37,1.55,2.28,1.6,2.73Z"/><path class="cls-1" d="m248.89,96.37l-.38-.02c-.06,0-.13.09-.2.28-.07.19-.08.47-.03.85.05.32.08.65.1,1,.02.35.04.59.07.72.03.13.02.25-.02.38-.04.13-.12.26-.25.42-.13.15-.28.32-.45.5-.17.18-.3.31-.39.36-.1.06-.15.15-.15.28s.16.39.49.78c.33.39.5.62.5.68l-.04,1.05-.52,1.12c.61.53.91.96.9,1.27l-.67,16.61-4.35-.65,4.23,3.5-.11,2.66-6.52,6.11-8.92-.36-5.12-2.68-5.13,2.27-14.09-2-7.44-6.39-3.06-18.47,5.39-3.87-5.84.91-1.07-6.41,10.87-10.21,4-.12c.12.07.25.14.37.2.06,0,.09.04.09.1l.85.03.97-.44.85.03c.26-.12.48-.11.66.03.12.07.31.11.57.12l1.04.04c.13,0,.31.2.55.59l.3-.27.4-.46c.13-.12.26-.24.39-.36l11.53-.58,4.7,3.8,6.88-3.33,8.25,5.18-.19,4.75Zm-21.63,17.76l1.18-10.51-3.76-3.48-6.02.8-5.27,5.78,4.45,9.97,3.46-.91-1,3.57,3.79-4.41,3.17-.82Z"/><path class="cls-1" d="m289.54,90.41l9.35,11.03-1.21,6.51-.48-.02-.05,1.14-.52,1.12-.95-.04.44.78-1.44,2.7,1.11.81-.54,1.59-.03.66c0,.06.1.27.31.63.21.36.31.63.3.82-.07.19-.11.31-.11.38l-1.21,6.51-6.54,6.49-10.7,3.66-7.87-2.89.41,11.14-4.44,6.29-11.22,4.78-4.3-6.54,1.43-16.49,4.85-7.22-4.49,2.86,1.26-14.59c.13-.12.23-.24.3-.37.07-.19.08-.36.02-.52-.06-.16-.05-.27.01-.33l.02-.43c0-.22.05-.47.13-.76.07-.28.18-.58.32-.89l.06-1.42c.35-.75.56-1.21.63-1.4.14-.25-.04-.54-.54-.88-.12-.07-.18-.18-.18-.34s.04-.3.11-.42l.1-.19c.21-.43.61-.99,1.21-1.66.59-.61.45-.9-.44-.87l-.05-1.14c.08-.38.09-.69.04-.95,0-.06-.21-.26-.64-.6l.53-5.97,8.61-6.02,2.48,2.29,2.84-2.07,10.49,1.47,5.43,6.87-2.31-6.46,7.47.97Zm-9.87,27.74l2.06-8.66-4.5-6.17-5.65-1.27-.99.91-.12,2.85-.97.53-.09,2.28-.7.83.61,1.26.41,1.73-.02.47c-.07.13-.14.23-.2.33-.07.09-.1.23-.11.42s.24.2.76.03l-.12,2.85,9.63,1.62Zm16.17-.11v-.09s0,.09,0,.09Z"/><path class="cls-1" d="m338.14,92.37l9.35,11.03-1.21,6.51-.48-.02-.05,1.14-.52,1.12-.95-.04.44.78-1.44,2.7,1.11.81-.54,1.59-.03.66c0,.06.1.27.31.63.21.36.31.63.3.82-.07.19-.11.31-.11.38l-1.21,6.51-6.54,6.49-10.7,3.66-7.87-2.89.41,11.14-4.44,6.29-11.22,4.78-4.3-6.54,1.43-16.49,4.85-7.22-4.49,2.86,1.26-14.59c.13-.12.23-.24.3-.37.07-.19.08-.36.02-.52-.06-.16-.05-.27.01-.33l.02-.43c0-.22.05-.47.13-.76.07-.28.18-.58.32-.89l.06-1.42c.35-.75.56-1.21.63-1.4.14-.25-.04-.54-.54-.88-.12-.07-.18-.18-.18-.34s.04-.3.11-.42l.1-.19c.21-.43.61-.99,1.21-1.66.59-.61.45-.9-.44-.87l-.05-1.14c.08-.38.09-.69.04-.95,0-.06-.21-.26-.64-.6l.53-5.97,8.61-6.02,2.48,2.29,2.84-2.07,10.49,1.47,5.43,6.87-2.31-6.46,7.47.97Zm-9.87,27.74l2.06-8.66-4.5-6.17-5.65-1.27-.99.91-.12,2.85-.97.53-.09,2.28-.7.83.61,1.26.41,1.73-.02.47c-.07.13-.14.23-.2.33-.07.09-.1.23-.11.42s.24.2.76.03l-.12,2.85,9.63,1.62Zm16.17-.11v-.09s0,.09,0,.09Z"/><path class="cls-1" d="m372.45,104.5l-1.69,13.53-4.97-1.63,4.66,4.56-1.66,12.77-7.07,5.51-8.99-1.12-6.49-4.07.95-4.62,5.4-1.87-4.92-.67,2.39-12.17c.4-.49.8-1.04,1.21-1.66l.41-.74c-.26.18-.38.11-.37-.21l.94-1.96c-.17-.45-.31-.96-.41-1.54l1.18-.9-.57-.12c-.31-.08-.23-.52.24-1.32l.03-.76-.74-.6,1.67-8.49,11.68-4.38,1.6,2.82-.71,1.21.55.59c.2-.37.39-.33.57.12l.71,1.17-.15,1.42c1.37.56,2.12.91,2.24,1.04,0,.06-.05.13-.15.18-.1.06-.19.12-.29.18-.1.06-.15.15-.15.28l.32,1.44.76.13.4-.55,1.42,2.43Zm-17.34-24.95c-.12-.07-.25-.14-.37-.21l-.77-2.12,7.76-3.87,7.6.02,1.6,2.82-4.98,3.32,6.13-1.18,1.33,2.34-2.6,7.98-12.21,1.03-1.28-3.57-.09-.19c.21-.43.35-.71.41-.84.21-.43.04-.98-.5-1.64-.31-.2-.37-.36-.17-.48.2-.12.3-.27.3-.46l.14-1.13-.57-.02-.91-.89c-.12-.19-.26-.37-.41-.54-.15-.16-.29-.28-.41-.35Z"/><path class="cls-1" d="m424.01,115.43l.2,6.85-4.78,17.02-18.08-1.87,2.09-11.61c0-.19.14-.36.4-.51.26-.15.42-.28.49-.41.07-.12.11-.28.11-.47s-.02-.35-.08-.48l-.09-.19.88-.63.8-.92-1.66-1.3,1.18-.9-.06-.86-.55-.59c-.05-.26.2-1.16.77-2.73.36-1,.28-1.45-.23-1.34l.35-1.51-2.54-5.43-6.79.96-.51,15-4.4-1.6,4.27,4.93-.44,10.92-15.29,1.86-1.38-3.57-.26-.68.24-1.13.05-1.23-.06-.86-.54-.78-.55-.4-1.19-1.09-.25-.77-1.97-5.31,1.06-9.75.7-.83c.06-.06.13-.15.2-.28.07-.12.17-.36.31-.7.14-.34.18-.64.13-.9l-.03-1.71.02-.48c.07-.12.31-.65.73-1.59.07-.12.04-.24-.08-.34-.12-.1-.28-.19-.47-.26h-.19s-.02-1.81-.02-1.81l.7-.83.05-1.14v-2.09s-.56-.5-.56-.5l.48-4.73,6.78-5.43,10.95,4.34v.19s5.94-1.19,5.94-1.19l5.66,3.37-2.6-4,9.3-1.81,10.13,8.21.51,13.14-4.21-1.79,4.38,4.55Z"/><path class="cls-1" d="m473.51,104.69l-1.3,8.69-5.23,4.64,4.68-.48-1.85,12.76-2.36,6.66c-.9.22-1.38.42-1.45.61l-.15,1.42c0,.13-.19.31-.55.55-.36.24-.7.48-1.03.72l-.58.26.72.89-.17,1.8-.42.93.92.8-.64,1.78-.65-.31c-.19.05-.24.31-.13.76.04.44,0,.73-.13.85-.13.12-.17.28-.11.47.06.06.11.08.14.05.03-.03.05-.11.06-.24-.02.38-.1.91-.26,1.61l-2.38,7.03-14.58,5.5-5.84-1.38-1.32-.34-.15-.96c-.11-.51-.33-.52-.66-.03l-.67.07-.46-.3-1.5-.63-.66-.22-1.16.43c-.5-.21-.84-.41-1.02-.61l-.66-.12-.79.63-2.63-.68-7.42-9.33,12.01-5.41,13.22,2.15,3.55-5.56-7.66,1.31-9.66-5.52-5.12-7.53.05-5.89,4.05-6.21-4.06,1.55.07-13.5,11.01-9.06,3.79.25.36.49.66.03,1.32.24.66.12c.12.07.28.12.47.16.19.04.38.03.57-.02h.19s.96-.33.96-.33c.26-.31.45-.27.57.12.17.39.39.62.64.69l.85.13.66.12c.06-.06.14-.06.24,0,.09.07.23.1.42.11s.3.04.33.11c.03.07.11.04.24-.09l.49-.27.99-1.01,10.62.71,9.86,7.81Zm-20.52,18.38l1.44-12.21-5.43.26-6.11,2.99,3,10.39,7.09-1.42Z"/></g></svg>