<?xml version="1.0" encoding="UTF-8"?><svg id="Layer_2" xmlns="http://www.w3.org/2000/svg" viewBox="0 0 656.25 260.53"><defs><style>.cls-1{fill:#fff;}.cls-2{fill:#656665;}.cls-3{fill:#cdcecd;}.cls-4{fill:none;stroke:#88898a;stroke-miterlimit:10;stroke-width:10px;}.cls-5{fill:#a1a09f;opacity:.2;}.cls-6{opacity:.17;}</style></defs><g id="Layer_30"><path class="cls-2" d="m630.96,222.26L24.23,260.53c-10.62,0-19.23-8.61-19.23-19.23V96.17c0-10.62,8.61-19.23,19.23-19.23l607.8-43.58c10.62,0,19.23,8.61,19.23,19.23l-1.06,150.44c0,10.62-8.61,19.23-19.23,19.23Z"/><path class="cls-3" d="m631.37,193.89L24.63,232.16c-10.62,0-19.23-8.61-19.23-19.23V67.81c0-10.62,8.61-19.23,19.23-19.23L632.43,5c10.62,0,19.23,8.61,19.23,19.23l-1.06,150.44c0,10.62-8.61,19.23-19.23,19.23Z"/><path class="cls-5" d="m633.59,5l-202.34,14.51L144.08,224.7l488.45-30.8c10.62,0,19.23-8.61,19.23-19.23l1.06-150.44c0-10.62-8.61-19.23-19.23-19.23Z"/><path class="cls-4" d="m630.96,193.89L24.23,232.16c-10.62,0-19.23-8.61-19.23-19.23V67.81c0-10.62,8.61-19.23,19.23-19.23L632.03,5c10.62,0,19.23,8.61,19.23,19.23l-1.06,150.44c0,10.62-8.61,19.23-19.23,19.23Z"/><g class="cls-6"><path d="m286.55,142.29l8.39,15.92-4.21,7.57-7.86-3.02c-.2-.11-.28-.2-.22-.27.12-.08.16-.23.11-.45-.05-.22-.18-.39-.38-.5-.2-.11-.45-.19-.75-.23-.3-.04-.48-.06-.54-.05-.61-.34-1.22-.61-1.82-.82-.73-.2-.76-.52-.08-.97-.21-.24-1.32-.27-3.32-.1l-1.45.13-5.23-1.98-21.46,1.76-14.77-7.58-2.34-7.88c-.09-.25.11-.59.59-1.02.48-.43.71-.78.69-1.03-.08-.97-.51-1.81-1.29-2.52-.48-.35-.61-.69-.38-1.04.23-.34.3-.63.22-.85-.08-.22-.29-.36-.62-.43-.33-.07-.6-.19-.81-.37s-.3-.49-.28-.95c0-.84-.07-1.42-.2-1.74-.13-.31-.63-1.11-1.52-2.4l-5.35-17.94,6.69-8.17,14.3-2.41c-5.01-.15-8.98-.26-11.91-.33l4.32-5.24,31.36-5.54,7.04,6.01c.07.12.32.33.73.62.57.54.92.94,1.08,1.22.15.28.2.62.14,1.01-.06.39-.09.66-.08.79.02.26.06.53.12.82.06.29.13.52.21.71.08.19.13.41.15.67s0,.42-.05.49c-.06.07,0,.06.19-.02.43-.23.76-.16.99.21.22.24.59.42,1.12.54.53.12.87.27,1.01.45.35.36.9.67,1.64.93.39.03.86-.03,1.4-.17.54-.14.85-.15.92-.03l3.88,3.27-.27,20.57-7.09,2.46,7.07.65-.08,9.26Zm-22.42-8.19l4.21-13.22-5.8-8.55-11.98,3.28-6.86,7.41,3.79,7.75-2.93,2.1,3.77-.33,3.19,6.44,12.62-4.89Z"/><path d="m342.96,120.17l-.31,8.79-.55,1.51c.14.12.25.27.33.46.08.19.13.38.15.57l-.29,1.1c.16.38-.02.88-.55,1.51-.34.55-.32.81.07.77.41.23.43.48.07.77-.18.15-.28.28-.3.42-.02.13-.01.25.03.34.04.09.1.25.19.47.08.22.17.46.26.71-.29.41-.59.67-.91.76-.12.08-.18.18-.17.31s.05.26.13.38l.11.19-.59,1.02c.51.67.79,1.23.83,1.68l.13,1.55c.14.12.35.26.62.43l-.15,4.98-6.6,4.76-11.3-2.33-.02-.19-18.44,5.2-10.98-7.62-.85-7.62,8.74-2.51-9.06-.09-1.51-12.92,3.63-17.64,18.55.54-.49,4.42v.1s-.08,1.27-.08,1.27l-.08.2v.1s.03.19.03.19c-.87.47-1.38.9-1.54,1.3,0,.07,0,.16-.02.29-.02.13-.03.26-.02.39l.04.43c.01.16.04.32.09.48.05.16.07.29.08.38l.02.24v.1c-.22.41-.41.78-.58,1.12,0,.06,0,.21-.01.44-.01.23,0,.49.02.78s.06.55.11.77c.05.22.09.43.1.62l.03.29-.02.88.15,1.74c0,.65.03,1.13.13,1.45.08.19.11.48.08.87l-.62,6.29,3,5.39,6.78-1.56-1.12-29.79,15.4-3.18,2.39,5.15c-.48,1.21-1.09,2.59-1.83,4.15-.74,1.56-1.37,2.78-1.87,3.67l-.76,1.33,5.67-6.43,3.7,7.86Z"/><path d="m369,115.1l.04,13.92-5.25-1.01,5.31,4.02-.03,13.15-6.45,6.5-9.25.02-7.1-3.28.36-4.8,5.23-2.59-5.07-.05.85-12.63c.34-.55.68-1.16,1.01-1.84l.32-.81c-.24.22-.38.16-.4-.16l.69-2.1c-.23-.43-.44-.94-.62-1.5l1.08-1.07-.59-.05c-.33-.04-.3-.49.08-1.37l-.07-.77-.82-.51.6-8.81,11.27-5.94,1.98,2.65-.57,1.31.63.53c.16-.4.36-.39.59.05l.87,1.09.03,1.46c1.46.39,2.26.65,2.4.77,0,.07-.04.13-.13.21-.09.07-.18.15-.27.22-.09.07-.13.17-.12.3l.51,1.42.78.03.34-.61,1.76,2.28Zm-20.78-23.03c-.14-.05-.27-.11-.4-.16l-1.05-2.05,7.36-4.92,7.71-.96,1.98,2.65-4.62,4,6.06-1.98,1.65,2.19-1.61,8.42-12.24,2.62-1.76-3.45-.11-.18c.15-.47.26-.77.31-.9.15-.47-.09-1-.72-1.59-.34-.17-.42-.32-.23-.47.18-.14.26-.32.25-.51v-1.17s-.58.05-.58.05l-1.04-.79c-.15-.18-.31-.35-.48-.49-.18-.15-.33-.25-.46-.3Z"/><path d="m403.26,123.91l13.29,3.91-2.86,14.17-2.94,5.42-7.11-.07c-.01-.13-.08-.22-.22-.27-.13-.05-.24-.11-.31-.17-.08-.19-.29-.33-.62-.43-.13-.05-.22-.09-.25-.12-.04-.03-.1-.07-.21-.13-.1-.05-.19-.11-.26-.17l-.58.05-4.06.35-1.62-.74-.79.95-.58.05-2.37-.38c-.4-.16-.73-.23-.99-.21-.19.02-.46.33-.79.95l-6.05-.16-3.03-5.77,5.26-6.78-6.66,4.08-3.16-6.15.09-18.12-4-.04-3.13-11.41,5.8-.5-1.6-10.57,7.16-9.58,12.4,4.87.44,5.12-4.28,5.63,4.48-3.31.56,6.47,9.63-1.22,5.72,5.35-9.8,9.42-4.56.2v3.41c-.26.02-.44.14-.55.34-.18.15-.3.33-.34.56-.05.23-.07.46-.09.69-.01.23-.06.39-.15.5-.09.11-.12.3-.09.59s.08.53.16.72l.13.38.23,2.61c.12-.07.23-.12.33-.13s.21.02.35.07v2.34s4.45,5.17,4.45,5.17l3.6-7.91Z"/></g><path class="cls-1" d="m296.92,136.75l8.39,15.92-4.21,7.57-7.86-3.02c-.2-.11-.28-.2-.22-.27.12-.08.16-.23.11-.45-.05-.22-.18-.39-.38-.5-.2-.11-.45-.19-.75-.23-.3-.04-.48-.06-.54-.05-.61-.34-1.22-.61-1.82-.82-.73-.2-.76-.52-.08-.97-.21-.24-1.32-.27-3.32-.1l-1.45.13-5.23-1.98-21.46,1.76-14.77-7.58-2.34-7.88c-.09-.25.11-.59.59-1.02.48-.43.71-.78.69-1.03-.08-.97-.51-1.81-1.29-2.52-.48-.35-.61-.69-.38-1.04.23-.34.3-.63.22-.85-.08-.22-.29-.36-.62-.43-.33-.07-.6-.19-.81-.37s-.3-.49-.28-.95c0-.84-.07-1.42-.2-1.74-.13-.31-.63-1.11-1.52-2.4l-5.35-17.94,6.69-8.17,14.3-2.41c-5.01-.15-8.98-.26-11.91-.33l4.32-5.24,31.36-5.54,7.04,6.01c.07.12.32.33.73.62.57.54.92.94,1.08,1.22.15.28.2.62.14,1.01-.06.39-.09.66-.08.79.02.26.06.53.12.82.06.29.13.52.21.71.08.19.13.41.15.67s0,.42-.05.49c-.06.07,0,.06.19-.02.43-.23.76-.16.99.21.22.24.59.42,1.12.54.53.12.87.27,1.01.45.35.36.9.67,1.64.93.39.03.86-.03,1.4-.17.54-.14.85-.15.92-.03l3.88,3.27-.27,20.57-7.09,2.46,7.07.65-.08,9.26Zm-22.42-8.19l4.21-13.22-5.8-8.55-11.98,3.28-6.86,7.41,3.79,7.75-2.93,2.1,3.77-.33,3.19,6.44,12.62-4.89Z"/><path class="cls-1" d="m353.33,114.64l-.31,8.79-.55,1.51c.14.12.25.27.33.46.08.19.13.38.15.57l-.29,1.1c.16.38-.02.88-.55,1.51-.34.55-.32.81.07.77.41.23.43.48.07.77-.18.15-.28.28-.3.42-.02.13-.01.25.03.34.04.09.1.25.19.47.08.22.17.46.26.71-.29.41-.59.67-.91.76-.12.08-.18.18-.17.31s.05.26.13.38l.11.19-.59,1.02c.51.67.79,1.23.83,1.68l.13,1.55c.14.12.35.26.62.43l-.15,4.98-6.6,4.76-11.3-2.33-.02-.19-18.44,5.2-10.98-7.62-.85-7.62,8.74-2.51-9.06-.09-1.51-12.92,3.63-17.64,18.55.54-.49,4.42v.1s-.08,1.27-.08,1.27l-.08.2v.1s.03.19.03.19c-.87.47-1.38.9-1.54,1.3,0,.07,0,.16-.02.29-.02.13-.03.26-.02.39l.04.43c.01.16.04.32.09.48.05.16.07.29.08.38l.02.24v.1c-.22.41-.41.78-.58,1.12,0,.06,0,.21-.01.44-.01.23,0,.49.02.78s.06.55.11.77c.05.22.09.43.1.62l.03.29-.02.88.15,1.74c0,.65.03,1.13.13,1.45.08.19.11.48.08.87l-.62,6.29,3,5.39,6.78-1.56-1.12-29.79,15.4-3.18,2.39,5.15c-.48,1.21-1.09,2.59-1.83,4.15-.74,1.56-1.37,2.78-1.87,3.67l-.76,1.33,5.67-6.43,3.7,7.86Z"/><path class="cls-1" d="m379.37,109.56l.04,13.92-5.25-1.01,5.31,4.02-.03,13.15-6.45,6.5-9.25.02-7.1-3.28.36-4.8,5.23-2.59-5.07-.05.85-12.63c.34-.55.68-1.16,1.01-1.84l.32-.81c-.24.22-.38.16-.4-.16l.69-2.1c-.23-.43-.44-.94-.62-1.5l1.08-1.07-.59-.05c-.33-.04-.3-.49.08-1.37l-.07-.77-.82-.51.6-8.81,11.27-5.94,1.98,2.65-.57,1.31.63.53c.16-.4.36-.39.59.05l.87,1.09.03,1.46c1.46.39,2.26.65,2.4.77,0,.07-.04.13-.13.21-.09.07-.18.15-.27.22-.09.07-.13.17-.12.3l.51,1.42.78.03.34-.61,1.76,2.28Zm-20.78-23.03c-.14-.05-.27-.11-.4-.16l-1.05-2.05,7.36-4.92,7.71-.96,1.98,2.65-4.62,4,6.06-1.98,1.65,2.19-1.61,8.42-12.24,2.62-1.76-3.45-.11-.18c.15-.47.26-.77.31-.9.15-.47-.09-1-.72-1.59-.34-.17-.42-.32-.23-.47.18-.14.26-.32.25-.51v-1.17s-.58.05-.58.05l-1.04-.79c-.15-.18-.31-.35-.48-.49-.18-.15-.33-.25-.46-.3Z"/><path class="cls-1" d="m413.63,118.38l13.29,3.91-2.86,14.17-2.94,5.42-7.11-.07c-.01-.13-.08-.22-.22-.27-.13-.05-.24-.11-.31-.17-.08-.19-.29-.33-.62-.43-.13-.05-.22-.09-.25-.12-.04-.03-.1-.07-.21-.13-.1-.05-.19-.11-.26-.17l-.58.05-4.06.35-1.62-.74-.79.95-.58.05-2.37-.38c-.4-.16-.73-.23-.99-.21-.19.02-.46.33-.79.95l-6.05-.16-3.03-5.77,5.26-6.78-6.66,4.08-3.16-6.15.09-18.12-4-.04-3.13-11.41,5.8-.5-1.6-10.57,7.16-9.58,12.4,4.87.44,5.12-4.28,5.63,4.48-3.31.56,6.47,9.63-1.22,5.72,5.35-9.8,9.42-4.56.2v3.41c-.26.02-.44.14-.55.34-.18.15-.3.33-.34.56-.05.23-.07.46-.09.69-.01.23-.06.39-.15.5-.09.11-.12.3-.09.59s.08.53.16.72l.13.38.23,2.61c.12-.07.23-.12.33-.13s.21.02.35.07v2.34s4.45,5.17,4.45,5.17l3.6-7.91Z"/></g></svg>