<?xml version="1.0" encoding="UTF-8"?><svg id="Layer_2" xmlns="http://www.w3.org/2000/svg" viewBox="0 0 108.28 92.42"><defs><style>.cls-1{fill:#666766;}.cls-2{fill:#cccccb;}.cls-3{fill:#a5a3a2;opacity:.2;}.cls-4{fill:none;stroke:#8b8b8c;stroke-miterlimit:10;stroke-width:8px;}</style></defs><g id="Layer_5"><path class="cls-1" d="m.08,87.21L13.88,25.71c.43-1.9,2.4-3.28,4.71-3.28h80.43c2.97,0,5.23,2.26,4.72,4.72l-12.77,61.94c-.4,1.94-2.41,3.35-4.75,3.34l-81.46-.43c-2.99-.02-5.23-2.31-4.68-4.78Z"/><path class="cls-2" d="m6.84,72.27L19.53,8.41c.39-1.98,2.21-3.41,4.33-3.41h74.01c2.74,0,4.81,2.34,4.34,4.9l-11.75,64.31c-.37,2.02-2.22,3.48-4.37,3.47l-74.95-.45c-2.75-.02-4.81-2.4-4.3-4.96Z"/><path class="cls-3" d="m7.17,72.63L21.12,8.77c.43-1.98,2.43-3.41,4.76-3.41h4.53l58.69,72.65-77.2-.42c-3.02-.02-5.29-2.4-4.73-4.96Z"/><path class="cls-4" d="m5.3,73.76L18.46,7.54c.41-2.05,2.29-3.54,4.49-3.54h76.76c2.84,0,4.99,2.43,4.5,5.08l-12.19,66.69c-.38,2.09-2.3,3.61-4.53,3.6l-77.73-.47c-2.85-.02-4.99-2.48-4.46-5.15Z"/></g></svg>