<?xml version="1.0" encoding="UTF-8"?><svg id="Layer_2" xmlns="http://www.w3.org/2000/svg" viewBox="0 0 569.95 245.41"><defs><style>.cls-1{fill:#fff;}.cls-2{fill:#656665;}.cls-3{fill:#cdcecd;}.cls-4{fill:none;stroke:#88898a;stroke-miterlimit:10;stroke-width:10px;}.cls-5{fill:#a1a09f;opacity:.2;}.cls-6{opacity:.17;}</style></defs><g id="Layer_30"><path class="cls-2" d="m22.58,209.41l525.69,36c9.2,0,16.66-8.1,16.66-18.09V90.78c0-9.99-7.46-18.09-16.66-18.09L21.66,31.69c-9.2,0-16.66,8.1-16.66,18.09l.92,141.54c0,9.99,7.46,18.09,16.66,18.09Z"/><path class="cls-3" d="m22.23,182.72l525.69,36c9.2,0,16.66-8.1,16.66-18.09V64.09c0-9.99-7.46-18.09-16.66-18.09L21.31,5C12.11,5,4.65,13.1,4.65,23.09l.92,141.54c0,9.99,7.46,18.09,16.66,18.09Z"/><path class="cls-5" d="m555.74,45.37l-175.34-13.68L107.88,188.36l434.47,30.17c9.1,1.44,17.59-5.6,18.95-15.73l8.46-136.48c1.36-10.13-4.91-19.51-14.02-20.95Z"/><path class="cls-4" d="m22.58,182.72l525.69,36c9.2,0,16.66-8.1,16.66-18.09V64.09c0-9.99-7.46-18.09-16.66-18.09L21.66,5C12.46,5,5,13.1,5,23.09l.92,141.54c0,9.99,7.46,18.09,16.66,18.09Z"/><g class="cls-6"><path d="m144.02,130.44l.28,2.2-1.53,4.31-33.72,1.23-2.99-5.27,4.94-2.06c-2.35.02-4.38.06-6.09.11l-4.58-8.01,9.51-8.51,18.91,6.56.38-4.17-16.12-7.38-11.06-18.28,2.76-4.25c.13,0,.35-.05.67-.16.32-.11.58-.19.77-.25.45-.17.72-.27.82-.3.1-.03.2-.15.3-.37.1-.22.22-.42.36-.6.27-.49.32-.71.12-.66.71-.35,1.05-.71,1-1.1-.05-.25.04-.62.29-1.08.24-.46.37-.76.37-.89s.09-.25.25-.37c.16-.12.34-.21.53-.26l.29-.08.99-.91c.03-.57-.17-1.27-.57-2.12-.06-.07-.09-.13-.09-.19l3.78-5.82,29.36,2.75,2.05,3.14-7.45.8,9.32,2.04,4.09,6.37c-5.64,4.12-8.65,6.17-9.03,6.15l-22.34-6.53.8,7.55,6.9,3.07,3.94,5.31.72-3.3,13.15,5.82,5.35,7.85-3.47,9.54-1.16.33-.84,1.67-.27,1.8-1.1,1.19c-.41.74-.6,1.37-.56,1.88v.19c-.07-.13-.1-.13-.1,0l.05,1.05Z"/><path d="m189.31,121.45l11.09,2.97-.73,11.85-7.3,1.57c-.19.05-.5-.18-.92-.71l-.94-.23-.79.63c-.52.17-.94.34-1.26.51l-1.71-.08c-.43-.34-.74-.51-.93-.52-.06,0-.27.27-.61.83l-.57.07-1.34.22-.38-.02c-.12-.07-.26.02-.39.27-.14.25-.28.46-.41.65l-.11.38c-.07.12-.14.25-.21.37l-6.91,1.5-14.93-8.38-2.09-6.47,2.97-6.81-3.98,3.81-4.84-15.05,9.18-11.66,6.91-1.4h.09s.57-.06.57-.06l1.12.53c.37.14.6.12.67-.06l.4-.36.97-.43.65.31.78-.44.76-.06c.45-.17.71-.19.76-.06.18.14.38.11.57-.07,0-.06.05-.14.15-.23s.21-.2.35-.32c.13-.12.26-.24.4-.36l7.1-1.49,13.25,7.83-.96,16.98-21.31.27,1.21,2.72-4.21.57,5.07,1.47,1.04,2.23,11.75-3.27Zm-15.72-16.12l-.86,4.34,14.74-.1-1.92-3.89-5.39-2.72-6.57,2.37Z"/><path d="m231.02,120.29l12.4,5.51-4.6,13.39-3.55,4.88-6.9-.98c0-.13-.05-.22-.18-.29-.12-.07-.22-.14-.28-.2-.06-.19-.24-.36-.55-.5-.12-.07-.2-.12-.23-.15-.03-.03-.09-.08-.18-.15-.09-.07-.17-.13-.23-.2l-.57-.03-3.99-.18-1.48-.92-.89.82-.57-.03-2.25-.67c-.37-.21-.68-.32-.94-.33-.19,0-.49.26-.89.82l-5.85-.93-2.2-6,5.97-5.91-6.99,3.11-2.28-6.38,2.41-17.58-3.87-.56-1.57-11.48,5.69.26-.19-10.47,8.18-8.38,11.41,6.32-.23,5.03-4.88,4.91,4.78-2.64-.29,6.36,9.51.05,4.87,5.93-10.72,7.88-4.45-.39-.43,3.31c-.25-.01-.45.07-.58.26-.2.12-.33.29-.4.5-.07.22-.13.44-.17.66-.04.22-.11.38-.21.47-.1.09-.16.28-.17.56s0,.52.06.72l.08.38-.12,2.56c.13-.06.24-.08.34-.08s.2.04.33.11l-.29,2.27,3.65,5.59,4.51-7.21Z"/><path d="m275.05,122.28l12.4,5.51-4.6,13.39-3.55,4.88-6.9-.98c0-.13-.05-.22-.18-.29-.12-.07-.22-.14-.28-.2-.06-.19-.24-.36-.55-.5-.12-.07-.2-.12-.23-.15-.03-.03-.09-.08-.18-.15-.09-.07-.17-.13-.23-.2l-.57-.03-3.99-.18-1.48-.92-.89.82-.57-.03-2.25-.67c-.37-.21-.68-.32-.94-.33-.19,0-.49.26-.89.82l-5.85-.93-2.2-6,5.97-5.91-6.99,3.11-2.28-6.38,2.41-17.58-3.87-.56-1.57-11.48,5.69.26-.19-10.47,8.18-8.38,11.41,6.32-.23,5.03-4.88,4.91,4.78-2.64-.29,6.36,9.51.05,4.87,5.93-10.72,7.88-4.45-.39-.43,3.31c-.25-.01-.45.07-.58.26-.2.12-.33.29-.4.5-.07.22-.13.44-.17.66-.04.22-.11.38-.21.47-.1.09-.16.28-.17.56s0,.52.06.72l.08.38-.12,2.56c.13-.06.24-.08.34-.08s.2.04.33.11l-.29,2.27,3.65,5.59,4.51-7.21Z"/><path d="m313.72,112.52l-1.75,13.52-4.97-1.65,4.64,4.58-1.72,12.76-7.09,5.48-8.98-1.17-6.47-4.1.97-4.62,5.41-1.85-4.91-.7,2.45-12.16c.4-.49.81-1.04,1.22-1.66l.41-.74c-.26.18-.39.11-.37-.21l.94-1.95c-.17-.45-.31-.97-.41-1.54l1.18-.9-.56-.12c-.31-.08-.23-.52.25-1.32l.03-.76-.73-.6,1.71-8.48,11.7-4.32,1.58,2.83-.72,1.2.54.6c.21-.37.4-.33.56.12l.71,1.17-.16,1.42c1.37.57,2.11.92,2.24,1.05,0,.06-.05.13-.15.18-.1.06-.2.12-.29.18-.1.06-.15.15-.16.28l.32,1.44.76.13.41-.55,1.41,2.44Zm-17.22-25.03c-.12-.07-.25-.14-.37-.21l-.76-2.13,7.78-3.83,7.6.06,1.58,2.83-5,3.29,6.14-1.15,1.32,2.34-2.64,7.96-12.22.97-1.26-3.58-.09-.19c.21-.43.35-.71.42-.84.21-.43.04-.98-.5-1.64-.31-.2-.36-.36-.17-.48.2-.12.3-.27.31-.46l.15-1.13-.57-.03-.91-.9c-.12-.2-.25-.38-.4-.54-.15-.16-.29-.28-.41-.35Z"/><path d="m365.23,123.7l.17,6.85-4.86,16.99-18.08-1.96,2.14-11.6c0-.19.14-.36.4-.5.26-.15.42-.28.49-.4.07-.12.11-.28.12-.47s-.02-.35-.07-.48l-.09-.19.88-.63.8-.91-1.65-1.31,1.18-.9-.06-.86-.54-.59c-.05-.26.21-1.16.79-2.72.36-1,.29-1.44-.22-1.34l.35-1.51-2.51-5.44-6.79.93-.58,15-4.4-1.62,4.25,4.95-.49,10.91-15.3,1.78-1.36-3.58-.25-.68.24-1.13.06-1.23-.06-.86-.54-.78-.55-.41-1.19-1.1-.25-.77-1.95-5.32,1.11-9.75.7-.82c.06-.06.13-.15.2-.28.07-.12.17-.36.32-.7.14-.34.19-.64.14-.9l-.02-1.71.02-.48c.07-.12.31-.65.74-1.58.07-.12.04-.24-.08-.34-.12-.1-.28-.19-.46-.26h-.19s-.01-1.82-.01-1.82l.7-.82.05-1.14v-2.09s-.55-.5-.55-.5l.5-4.73,6.81-5.4,10.93,4.39v.19s5.94-1.16,5.94-1.16l5.65,3.39-2.58-4.01,9.3-1.77,10.09,8.25.45,13.14-4.2-1.81,4.36,4.57Z"/><path d="m414.78,113.19l-1.34,8.69-5.25,4.61,4.68-.45-1.91,12.75-2.39,6.64c-.9.21-1.38.41-1.45.6l-.16,1.42c0,.13-.19.31-.55.55-.36.24-.7.48-1.03.71l-.58.26.72.89-.18,1.8-.42.93.91.8-.65,1.78-.65-.31c-.19.05-.24.31-.13.75.04.44,0,.73-.13.85-.13.12-.17.28-.12.47.06.07.11.08.14.05.03-.03.05-.11.06-.24-.02.38-.1.91-.26,1.6l-2.41,7.02-14.6,5.43-5.83-1.4-1.32-.34-.15-.96c-.1-.51-.33-.52-.66-.03l-.67.06-.46-.31-1.49-.64-.66-.22-1.16.42c-.5-.21-.84-.42-1.02-.62l-.66-.12-.79.63-2.63-.69-7.37-9.37,12.03-5.35,13.21,2.21,3.58-5.54-7.67,1.27-9.64-5.57-5.08-7.55.08-5.89,4.08-6.19-4.06,1.53.13-13.5,11.06-9.01,3.79.27.36.49.66.03,1.32.25.66.13c.12.07.28.12.47.16.19.04.38.03.57-.02h.19s.97-.33.97-.33c.27-.3.45-.26.56.12.17.39.38.62.63.69l.85.13.66.13c.07-.06.15-.06.24.01.09.07.23.11.42.11s.3.05.33.11c.03.07.11.04.24-.08l.49-.26,1-1,10.62.77,9.82,7.86Zm-20.61,18.28l1.5-12.2-5.43.23-6.12,2.96,2.95,10.4,7.1-1.39Z"/><path d="m454.39,126.77l1.96.85,4.29,5.99-2.51,5.02-6.26-2.47c2.11,2.44,3.71,4.26,4.79,5.45l-5.23,10.41-9.52.24-1.58-.83-1.33-.06-.68.35-.67.16-.73-.6-1.52-.07-.29.18-.57-.03-1.61-.07-1.26.51-.79.72-1.62.12-7.52.14-7.09-11.54,8.35-7.99,14.59,5.51-1.83-3.79-8.1-3.88-11.92-14.04,3.3-3.65.8-.91c.36.46.71.48,1.04.05.13-.18.24-.43.32-.75.08-.31.12-.57.13-.76v-.19s.61-.64.61-.64l.48.02.53-1.21.8-.91.95.04c-.06-.13-.07-.27-.03-.43.04-.16.09-.3.16-.42.07-.12.14-.25.21-.37.07-.12.14-.25.21-.37.07-.12.17-.28.31-.46l.1-.09,1-1.1,2.2-2.47,13.17,1.07,5.04,4.22-1.63-3.97,10.9.87,6.42,9.51c-3.44,4.66-5.29,6.99-5.55,6.98l-16.85-5.99.6,5.73,1.03.43c-.07.12-.04.24.08.34.12.1.31.19.56.26.25.07.52.15.8.23.28.08.61.17.99.28.38.11.69.24.93.38l.74.41v.19c-.21.18-.31.46-.33.84.03.64.22.64.57.03l1.13.24c.33-.37.71-.35,1.14.05l-.04.85,2.94.13-.14.94c-.01.32.1.53.35.63.25.11.5.13.76.08l.38.02c.51-.1,1.02-.24,1.54-.41Z"/></g><path class="cls-1" d="m151.25,123.47l.28,2.2-1.53,4.3-33.72,1.23-3-5.27,4.94-2.06c-2.35.02-4.38.06-6.09.11l-4.58-8,9.51-8.51,18.91,6.56.38-4.17-16.12-7.38-11.06-18.28,2.76-4.25c.12,0,.35-.05.67-.16.32-.11.58-.2.77-.25.45-.17.72-.27.82-.3.1-.03.2-.15.3-.37.1-.22.22-.42.36-.6.27-.49.32-.71.12-.66.71-.35,1.05-.71,1-1.1-.05-.25.04-.62.29-1.08.24-.46.37-.76.37-.89,0-.13.09-.25.25-.37.16-.12.34-.21.54-.26l.29-.08.99-.91c.03-.57-.17-1.28-.57-2.12-.06-.07-.09-.13-.09-.19l3.78-5.82,29.36,2.75,2.05,3.14-7.45.8,9.32,2.04,4.09,6.37c-5.64,4.12-8.65,6.17-9.03,6.15l-22.34-6.53.8,7.55,6.9,3.07,3.94,5.31.72-3.3,13.15,5.82,5.35,7.85-3.47,9.54-1.16.33-.84,1.67-.27,1.8-1.1,1.19c-.42.74-.6,1.37-.56,1.88v.19c-.07-.13-.1-.13-.1,0l.05,1.05Z"/><path class="cls-1" d="m196.54,114.49l11.09,2.97-.73,11.85-7.3,1.57c-.19.05-.5-.18-.92-.71l-.94-.23-.79.63c-.52.17-.94.34-1.26.51l-1.71-.08c-.43-.34-.74-.51-.93-.52-.06,0-.27.27-.61.83l-.57.07-1.34.22-.38-.02c-.12-.07-.26.02-.39.27-.14.25-.28.46-.41.65l-.11.38c-.07.12-.14.25-.21.37l-6.92,1.5-14.93-8.38-2.09-6.47,2.97-6.81-3.98,3.81-4.83-15.05,9.18-11.66,6.91-1.4h.09s.57-.07.57-.07l1.12.53c.37.15.6.12.67-.06l.4-.36.97-.43.65.31.78-.44.76-.06c.45-.17.71-.19.76-.06.18.14.38.11.57-.07,0-.06.05-.14.15-.23.1-.09.21-.2.35-.32.13-.12.26-.24.4-.36l7.1-1.49,13.25,7.83-.96,16.98-21.31.27,1.21,2.72-4.21.57,5.07,1.47,1.04,2.23,11.75-3.27Zm-15.72-16.12l-.86,4.33,14.74-.09-1.92-3.89-5.39-2.72-6.57,2.37Z"/><path class="cls-1" d="m238.24,113.33l12.4,5.5-4.6,13.39-3.55,4.88-6.9-.98c0-.13-.05-.22-.18-.29-.12-.07-.22-.14-.28-.2-.06-.19-.24-.36-.55-.5-.12-.07-.2-.12-.23-.15-.03-.03-.09-.08-.18-.15-.09-.07-.17-.13-.23-.2l-.57-.03-3.99-.18-1.48-.92-.89.82-.57-.03-2.25-.67c-.37-.21-.68-.32-.94-.33-.19,0-.49.26-.89.82l-5.85-.93-2.2-6,5.97-5.91-6.99,3.11-2.28-6.38,2.41-17.58-3.87-.56-1.57-11.48,5.69.26-.19-10.47,8.18-8.38,11.41,6.32-.23,5.03-4.88,4.92,4.78-2.64-.29,6.36,9.51.05,4.87,5.93-10.72,7.89-4.45-.39-.43,3.31c-.25-.01-.45.07-.58.26-.19.12-.33.29-.4.5-.07.22-.13.44-.17.66-.04.22-.11.38-.21.47-.1.09-.16.28-.17.56-.01.28,0,.52.06.72l.08.38-.12,2.56c.13-.06.24-.08.34-.08.09,0,.2.04.33.11l-.29,2.27,3.65,5.58,4.51-7.21Z"/><path class="cls-1" d="m282.28,115.32l12.4,5.5-4.6,13.39-3.55,4.88-6.9-.98c0-.13-.05-.22-.18-.29-.12-.07-.22-.14-.28-.2-.06-.19-.24-.36-.55-.5-.13-.07-.2-.12-.23-.15-.03-.03-.09-.08-.18-.15-.09-.07-.17-.13-.23-.2l-.57-.03-3.99-.18-1.48-.92-.89.81-.57-.03-2.25-.67c-.37-.21-.68-.32-.94-.33-.19,0-.49.26-.89.81l-5.85-.93-2.2-6,5.97-5.91-6.99,3.11-2.28-6.38,2.41-17.58-3.87-.56-1.57-11.48,5.69.26-.19-10.47,8.18-8.38,11.41,6.32-.23,5.03-4.88,4.91,4.78-2.64-.29,6.36,9.51.05,4.87,5.93-10.72,7.88-4.45-.39-.43,3.31c-.25-.01-.45.07-.58.26-.19.12-.33.29-.4.51-.07.22-.13.44-.17.66-.04.22-.11.38-.21.46-.1.09-.16.28-.17.56-.01.28,0,.52.06.72l.08.38-.12,2.56c.13-.06.24-.08.34-.08.09,0,.2.04.33.11l-.29,2.27,3.65,5.58,4.51-7.21Z"/><path class="cls-1" d="m320.95,105.56l-1.75,13.52-4.97-1.65,4.64,4.58-1.72,12.76-7.09,5.48-8.98-1.17-6.47-4.1.97-4.62,5.41-1.85-4.91-.7,2.45-12.16c.4-.49.81-1.04,1.22-1.66l.41-.74c-.26.18-.39.11-.37-.21l.95-1.95c-.17-.45-.31-.96-.41-1.54l1.18-.9-.57-.12c-.31-.08-.23-.52.25-1.32l.03-.76-.73-.6,1.71-8.48,11.7-4.32,1.58,2.83-.72,1.2.54.6c.21-.37.39-.33.56.12l.71,1.17-.16,1.42c1.37.57,2.11.92,2.24,1.05,0,.06-.05.13-.15.18-.1.06-.2.12-.29.18-.1.06-.15.15-.15.28l.31,1.44.76.13.41-.55,1.41,2.44Zm-17.22-25.03c-.12-.07-.25-.14-.37-.21l-.76-2.13,7.78-3.83,7.6.06,1.58,2.83-5,3.29,6.14-1.15,1.32,2.34-2.64,7.96-12.22.97-1.26-3.58-.09-.2c.21-.43.35-.71.42-.84.21-.43.04-.98-.5-1.64-.31-.2-.36-.36-.17-.48.2-.12.3-.27.31-.46l.15-1.13-.57-.03-.91-.9c-.12-.2-.25-.38-.4-.54-.15-.16-.29-.28-.41-.35Z"/><path class="cls-1" d="m372.46,116.73l.17,6.85-4.86,16.99-18.08-1.96,2.14-11.6c0-.19.14-.36.4-.5.26-.15.42-.28.49-.4.07-.12.11-.28.12-.47,0-.19-.02-.35-.07-.48l-.09-.2.88-.62.8-.92-1.65-1.31,1.18-.9-.06-.86-.54-.59c-.05-.25.21-1.16.79-2.72.36-1,.29-1.44-.22-1.34l.35-1.51-2.51-5.44-6.79.93-.58,15-4.4-1.63,4.25,4.95-.49,10.91-15.3,1.78-1.36-3.58-.25-.68.24-1.13.06-1.23-.06-.86-.54-.78-.55-.41-1.19-1.1-.25-.77-1.95-5.32,1.11-9.75.7-.82c.06-.06.13-.15.2-.28.07-.12.17-.36.32-.7.14-.34.19-.64.14-.9l-.02-1.71.02-.47c.07-.12.32-.65.74-1.58.07-.12.04-.24-.08-.34-.12-.1-.28-.19-.46-.26h-.19s-.01-1.82-.01-1.82l.7-.82.05-1.14v-2.09l-.55-.5.5-4.73,6.81-5.4,10.93,4.39v.19s5.94-1.16,5.94-1.16l5.65,3.39-2.58-4.01,9.3-1.77,10.09,8.25.45,13.14-4.2-1.81,4.36,4.57Z"/><path class="cls-1" d="m422,106.23l-1.34,8.69-5.25,4.61,4.68-.45-1.91,12.75-2.39,6.64c-.9.21-1.38.41-1.45.6l-.16,1.42c0,.13-.19.31-.55.54-.36.24-.7.48-1.03.71l-.58.26.72.89-.18,1.8-.42.93.92.8-.65,1.78-.65-.31c-.19.05-.24.3-.13.75.04.45,0,.73-.13.85-.13.12-.17.28-.12.47.06.07.11.08.14.05.03-.03.05-.11.06-.24-.02.38-.1.91-.26,1.6l-2.41,7.02-14.6,5.43-5.83-1.4-1.32-.34-.15-.96c-.11-.51-.33-.52-.66-.03l-.67.07-.46-.31-1.49-.64-.66-.22-1.16.42c-.5-.21-.84-.42-1.02-.62l-.66-.12-.79.63-2.63-.69-7.38-9.37,12.03-5.35,13.21,2.21,3.58-5.54-7.67,1.27-9.64-5.57-5.08-7.55.08-5.89,4.08-6.19-4.06,1.53.14-13.5,11.06-9.01,3.79.27.36.49.67.03,1.32.25.66.13c.12.07.28.12.47.16.19.04.38.03.57-.02h.19s.97-.33.97-.33c.27-.3.46-.26.56.12.17.39.38.62.63.7l.85.13.66.12c.07-.06.15-.05.24.01.09.07.23.11.42.11.19,0,.3.05.33.11.03.07.11.04.24-.08l.49-.26,1-1,10.62.76,9.82,7.86Zm-20.61,18.28l1.5-12.2-5.43.23-6.12,2.96,2.95,10.4,7.1-1.39Z"/><path class="cls-1" d="m461.62,119.81l1.96.85,4.29,6-2.51,5.02-6.26-2.47c2.11,2.44,3.71,4.26,4.79,5.45l-5.23,10.41-9.52.24-1.58-.83-1.33-.06-.68.35-.67.16-.73-.6-1.52-.07-.29.18-.57-.03-1.61-.07-1.26.51-.8.72-1.62.12-7.52.14-7.09-11.54,8.35-7.99,14.59,5.51-1.83-3.79-8.1-3.88-11.92-14.04,3.3-3.65.8-.92c.36.46.71.47,1.04.05.13-.18.24-.43.32-.75.08-.31.12-.56.13-.75v-.19s.61-.64.61-.64l.47.02.53-1.21.8-.91.95.04c-.06-.13-.07-.27-.03-.43.04-.16.09-.3.16-.42.07-.12.14-.25.21-.37.07-.12.14-.25.21-.37.07-.12.17-.28.31-.46l.1-.09,1-1.1,2.2-2.47,13.17,1.07,5.04,4.22-1.63-3.97,10.9.87,6.42,9.51c-3.44,4.66-5.29,6.99-5.54,6.98l-16.85-5.99.6,5.73,1.03.43c-.07.12-.04.23.08.33.12.1.31.19.56.26.25.08.52.15.8.23.28.08.61.17.99.28.38.11.69.24.93.38l.74.41v.19c-.21.18-.32.46-.33.84.03.63.22.64.57.03l1.13.24c.33-.37.71-.35,1.14.05l-.04.85,2.94.13-.14.95c-.01.32.1.53.35.63.25.11.5.13.76.08l.38.02c.51-.1,1.02-.24,1.54-.41Z"/></g></svg>