<?xml version="1.0" encoding="UTF-8"?><svg id="Layer_2" xmlns="http://www.w3.org/2000/svg" viewBox="0 0 1223.3 734.64"><defs><style>.cls-1{letter-spacing:-.02em;}.cls-2{fill:#656665;}.cls-3{fill:#cdcecd;}.cls-4{opacity:.17;}.cls-4,.cls-5{font-family:CaveStoneRegular, Cave-Stone;font-size:60px;}.cls-6{letter-spacing:-.01em;}.cls-5{fill:#fff;}.cls-7{fill:#a1a09f;opacity:.18;}.cls-8{letter-spacing:-.05em;}.cls-9{fill:none;stroke:#8b8b8c;stroke-miterlimit:10;stroke-width:8px;}</style></defs><g id="Layer_38"><rect class="cls-2" x="3.89" y="51.34" width="1219.41" height="683.29" rx="129.82" ry="129.82"/><rect class="cls-3" x="3.89" y="4.36" width="1203.39" height="683.29" rx="125.05" ry="125.05"/><path class="cls-7" d="m1067.19,4h-72.32L156.62,687.29h910.57c76.49,0,138.5-50.55,138.5-112.9V116.9c0-62.35-62.01-112.9-138.5-112.9Z"/><rect class="cls-9" x="4" y="4" width="1203.39" height="683.29" rx="125.05" ry="125.05"/><text class="cls-4" transform="translate(76.97 179.73)"><tspan x="0" y="0">Mu</tspan><tspan class="cls-6" x="78.66" y="0">s</tspan><tspan x="108" y="0">ic volume</tspan></text><text class="cls-5" transform="translate(82.86 175.5)"><tspan x="0" y="0">Mu</tspan><tspan class="cls-6" x="78.66" y="0">s</tspan><tspan x="108" y="0">ic volume</tspan></text><text class="cls-4" transform="translate(76.97 317.47)"><tspan x="0" y="0">SFX volume</tspan></text><text class="cls-5" transform="translate(82.86 311.03)"><tspan x="0" y="0">SFX volume</tspan></text><text class="cls-4" transform="translate(76.97 438.49)"><tspan x="0" y="0">B</tspan><tspan class="cls-1" x="41.22" y="0">r</tspan><tspan x="72.18" y="0">ightness</tspan></text><text class="cls-5" transform="translate(82.86 431.45)"><tspan x="0" y="0">B</tspan><tspan class="cls-1" x="41.22" y="0">r</tspan><tspan x="72.18" y="0">ightness</tspan></text><text class="cls-4" transform="translate(76.97 572.16)"><tspan class="cls-8" x="0" y="0">F</tspan><tspan x="28.68" y="0">ull screen</tspan></text><text class="cls-5" transform="translate(82.86 565.94)"><tspan class="cls-8" x="0" y="0">F</tspan><tspan x="28.68" y="0">ull screen</tspan></text></g></svg>